<svg aria-hidden="true" style="position: absolute; width: 0; height: 0; overflow: hidden;" version="1.1" xmlns="http://www.w3.org/2000/svg" xmlns:xlink="http://www.w3.org/1999/xlink">
<defs>
<symbol id="icon-instagram-2" viewBox="0 0 32 32">
<path   d="M31.969 9.408c-0.075-1.7-0.35-2.869-0.744-3.882-0.406-1.075-1.031-2.038-1.851-2.838-0.8-0.813-1.769-1.444-2.832-1.844-1.019-0.394-2.181-0.669-3.882-0.744-1.713-0.081-2.257-0.1-6.601-0.1s-4.888 0.019-6.595 0.094c-1.7 0.075-2.869 0.35-3.882 0.744-1.075 0.406-2.038 1.031-2.838 1.85-0.813 0.8-1.444 1.769-1.844 2.832-0.394 1.019-0.669 2.182-0.744 3.882-0.081 1.713-0.1 2.257-0.1 6.601s0.019 4.888 0.094 6.595c0.075 1.7 0.35 2.869 0.744 3.882 0.406 1.075 1.038 2.038 1.85 2.838 0.8 0.813 1.769 1.444 2.832 1.844 1.019 0.394 2.182 0.669 3.882 0.744 1.706 0.075 2.25 0.094 6.595 0.094s4.888-0.019 6.595-0.094c1.7-0.075 2.869-0.35 3.882-0.744 2.151-0.831 3.851-2.532 4.682-4.682 0.394-1.019 0.669-2.182 0.744-3.882 0.075-1.707 0.094-2.25 0.094-6.595s-0.006-4.888-0.081-6.595zM29.087 22.473c-0.069 1.563-0.331 2.407-0.55 2.969-0.538 1.394-1.644 2.5-3.038 3.038-0.563 0.219-1.413 0.481-2.969 0.55-1.688 0.075-2.194 0.094-6.464 0.094s-4.782-0.019-6.464-0.094c-1.563-0.069-2.407-0.331-2.969-0.55-0.694-0.256-1.325-0.663-1.838-1.194-0.531-0.519-0.938-1.144-1.194-1.838-0.219-0.563-0.481-1.413-0.55-2.969-0.075-1.688-0.094-2.194-0.094-6.464s0.019-4.782 0.094-6.464c0.069-1.563 0.331-2.407 0.55-2.969 0.256-0.694 0.663-1.325 1.2-1.838 0.519-0.531 1.144-0.938 1.838-1.194 0.563-0.219 1.413-0.481 2.969-0.55 1.688-0.075 2.194-0.094 6.464-0.094 4.276 0 4.782 0.019 6.464 0.094 1.563 0.069 2.407 0.331 2.969 0.55 0.694 0.256 1.325 0.662 1.838 1.194 0.531 0.519 0.938 1.144 1.194 1.838 0.219 0.563 0.481 1.413 0.55 2.969 0.075 1.688 0.094 2.194 0.094 6.464s-0.019 4.77-0.094 6.458z"></path>
<path   d="M16.059 7.783c-4.538 0-8.22 3.682-8.22 8.22s3.682 8.22 8.22 8.22c4.539 0 8.22-3.682 8.22-8.22s-3.682-8.22-8.22-8.22zM16.059 21.335c-2.944 0-5.332-2.388-5.332-5.332s2.388-5.332 5.332-5.332c2.945 0 5.332 2.388 5.332 5.332s-2.388 5.332-5.332 5.332z"></path>
<path  d="M26.524 7.458c0 1.060-0.859 1.919-1.919 1.919s-1.919-0.859-1.919-1.919c0-1.060 0.859-1.919 1.919-1.919s1.919 0.859 1.919 1.919z"></path>
</symbol>
<symbol id="icon-facebook-1" viewBox="0 0 32 32">
<path  d="M21.329 5.313h2.921v-5.088c-0.504-0.069-2.237-0.225-4.256-0.225-4.212 0-7.097 2.649-7.097 7.519v4.481h-4.648v5.688h4.648v14.312h5.699v-14.311h4.46l0.708-5.688h-5.169v-3.919c0.001-1.644 0.444-2.769 2.735-2.769z"></path>
</symbol>
<symbol id="icon-linkedin-1" viewBox="0 0 32 32">
<path  d="M31.992 32v-0.001h0.008v-11.736c0-5.741-1.236-10.164-7.948-10.164-3.227 0-5.392 1.771-6.276 3.449h-0.093v-2.913h-6.364v21.364h6.627v-10.579c0-2.785 0.528-5.479 3.977-5.479 3.399 0 3.449 3.179 3.449 5.657v10.401h6.62z"></path>
<path  d="M0.528 10.636h6.635v21.364h-6.635v-21.364z"></path>
<path  d="M3.843 0c-2.121 0-3.843 1.721-3.843 3.843s1.721 3.879 3.843 3.879c2.121 0 3.843-1.757 3.843-3.879-0.001-2.121-1.723-3.843-3.843-3.843v0z"></path>
</symbol>
<symbol id="icon-twitter-1" viewBox="0 0 32 32">
<path  d="M32 6.078c-1.19 0.522-2.458 0.868-3.78 1.036 1.36-0.812 2.398-2.088 2.886-3.626-1.268 0.756-2.668 1.29-4.16 1.588-1.204-1.282-2.92-2.076-4.792-2.076-3.632 0-6.556 2.948-6.556 6.562 0 0.52 0.044 1.020 0.152 1.496-5.454-0.266-10.28-2.88-13.522-6.862-0.566 0.982-0.898 2.106-0.898 3.316 0 2.272 1.17 4.286 2.914 5.452-1.054-0.020-2.088-0.326-2.964-0.808 0 0.020 0 0.046 0 0.072 0 3.188 2.274 5.836 5.256 6.446-0.534 0.146-1.116 0.216-1.72 0.216-0.42 0-0.844-0.024-1.242-0.112 0.85 2.598 3.262 4.508 6.13 4.57-2.232 1.746-5.066 2.798-8.134 2.798-0.538 0-1.054-0.024-1.57-0.090 2.906 1.874 6.35 2.944 10.064 2.944 12.072 0 18.672-10 18.672-18.668 0-0.29-0.010-0.57-0.024-0.848 1.302-0.924 2.396-2.078 3.288-3.406z"></path>
</symbol>
<symbol id="icon-astronaut-1" viewBox="0 0 32 32">
<path fill="#4d5ae5" style="fill: var(--color2, #4d5ae5)" d="M31.974 4.524c-0.063-0.193-0.229-0.333-0.43-0.363l-1.91-0.278-0.855-1.731c-0.179-0.365-0.777-0.365-0.956 0l-0.855 1.731-1.91 0.278c-0.201 0.029-0.367 0.17-0.431 0.363-0.062 0.193-0.011 0.405 0.135 0.547l1.383 1.348-0.326 1.903c-0.034 0.2 0.048 0.402 0.212 0.522 0.166 0.121 0.382 0.135 0.562 0.040l1.709-0.899 1.709 0.899c0.078 0.041 0.164 0.061 0.249 0.061 0.11 0 0.221-0.034 0.314-0.102 0.164-0.119 0.246-0.322 0.212-0.522l-0.326-1.903 1.383-1.348c0.145-0.142 0.197-0.354 0.135-0.547zM29.511 5.851c-0.125 0.122-0.183 0.299-0.153 0.472l0.191 1.114-1-0.526c-0.078-0.041-0.163-0.061-0.249-0.061s-0.17 0.020-0.249 0.061l-1.001 0.526 0.191-1.114c0.030-0.173-0.028-0.349-0.153-0.472l-0.81-0.789 1.119-0.163c0.174-0.025 0.324-0.134 0.402-0.292l0.5-1.013 0.5 1.013c0.078 0.157 0.228 0.267 0.402 0.292l1.119 0.163-0.809 0.789z"></path>
<path fill="#4d5ae5" style="fill: var(--color2, #4d5ae5)" d="M26.133 20.522h-1.067v1.067h1.067v-1.067z"></path>
<path fill="#4d5ae5" style="fill: var(--color2, #4d5ae5)" d="M26.133 22.656h-1.067v1.067h1.067v-1.067z"></path>
<path fill="#4d5ae5" style="fill: var(--color2, #4d5ae5)" d="M27.2 21.589h-1.067v1.067h1.067v-1.067z"></path>
<path fill="#4d5ae5" style="fill: var(--color2, #4d5ae5)" d="M25.067 21.589h-1.067v1.067h1.067v-1.067z"></path>
<path fill="#4d5ae5" style="fill: var(--color2, #4d5ae5)" d="M22.4 26.389h-1.067v1.067h1.067v-1.067z"></path>
<path fill="#4d5ae5" style="fill: var(--color2, #4d5ae5)" d="M22.4 28.522h-1.067v1.067h1.067v-1.067z"></path>
<path fill="#4d5ae5" style="fill: var(--color2, #4d5ae5)" d="M23.467 27.456h-1.067v1.067h1.067v-1.067z"></path>
<path fill="#4d5ae5" style="fill: var(--color2, #4d5ae5)" d="M21.333 27.456h-1.067v1.067h1.067v-1.067z"></path>
<path fill="#4d5ae5" style="fill: var(--color2, #4d5ae5)" d="M16 24.256h-1.067v1.067h1.067v-1.067z"></path>
<path fill="#4d5ae5" style="fill: var(--color2, #4d5ae5)" d="M16 26.389h-1.067v1.067h1.067v-1.067z"></path>
<path fill="#4d5ae5" style="fill: var(--color2, #4d5ae5)" d="M17.067 25.322h-1.067v1.067h1.067v-1.067z"></path>
<path fill="#4d5ae5" style="fill: var(--color2, #4d5ae5)" d="M14.933 25.322h-1.067v1.067h1.067v-1.067z"></path>
<path fill="#4d5ae5" style="fill: var(--color2, #4d5ae5)" d="M5.867 6.122h-1.067v1.067h1.067v-1.067z"></path>
<path fill="#4d5ae5" style="fill: var(--color2, #4d5ae5)" d="M5.867 8.255h-1.067v1.067h1.067v-1.067z"></path>
<path fill="#4d5ae5" style="fill: var(--color2, #4d5ae5)" d="M6.933 7.189h-1.067v1.067h1.067v-1.067z"></path>
<path fill="#4d5ae5" style="fill: var(--color2, #4d5ae5)" d="M4.8 7.189h-1.067v1.067h1.067v-1.067z"></path>
<path fill="#2e2f42" style="fill: var(--color3, #2e2f42)" d="M24.715 14.159c-0.287-0.388-0.709-0.637-1.188-0.705-0.481-0.068-0.956 0.058-1.34 0.352l-1.252 0.96-1.898 1.417-1.358-0.541c2.421-1.086 4.114-3.508 4.114-6.32 0-3.823-3.123-6.933-6.961-6.933s-6.961 3.11-6.961 6.933c0 1.386 0.414 2.674 1.12 3.758l-2.764-0.024c-0.002 0-0.003 0-0.005 0-0.009 0-0.015 0.004-0.023 0.005-0.053 0.002-0.105 0.013-0.155 0.031-0.013 0.005-0.026 0.008-0.038 0.013-0.006 0.003-0.013 0.003-0.019 0.006l-3.233 1.596c-0.001 0-0.001 0-0.001 0.001l-1.893 0.911c-0.021 0.009-0.042 0.021-0.063 0.035-0.755 0.502-1.012 1.489-0.598 2.295 0.22 0.429 0.595 0.745 1.056 0.889 0.178 0.055 0.359 0.083 0.539 0.083 0.29 0 0.577-0.071 0.839-0.211l1.388-0.738 2.264-1.169 1.357-0.008-5.442 5.416c-0.001 0.001-0.001 0.001-0.002 0.001l-1.339 1.333c-0.316 0.315-0.49 0.732-0.49 1.178s0.174 0.863 0.49 1.179c0.325 0.323 0.752 0.485 1.179 0.485s0.854-0.162 1.18-0.485l1.314-1.309 1.741-1.3 0.901 0.897-1.762 1.754c-0 0.001-0.001 0.001-0.002 0.001l-1.339 1.333c-0.316 0.315-0.49 0.732-0.49 1.178s0.174 0.863 0.49 1.179c0.325 0.323 0.753 0.485 1.18 0.485s0.855-0.162 1.18-0.485l3.482-3.467c0.001-0.001 0.001-0.001 0.001-0.002l1.010-1-0.004-0.004c0.006-0.006 0.015-0.009 0.022-0.015l5.166-5.658 3.471 0.494c0.025 0.004 0.050 0.005 0.075 0.005 0.065 0 0.127-0.015 0.187-0.038 0.018-0.006 0.033-0.015 0.050-0.023 0.019-0.010 0.039-0.015 0.058-0.027l3.213-2.133c0.012-0.008 0.018-0.021 0.029-0.029 0.013-0.010 0.029-0.014 0.041-0.026l1.271-1.191c0.662-0.62 0.753-1.635 0.212-2.362zM2.13 17.77c-0.173 0.093-0.37 0.111-0.558 0.052-0.187-0.058-0.338-0.186-0.427-0.358-0.161-0.314-0.068-0.695 0.214-0.902l1.314-0.632 0.449 1.313-0.992 0.527zM5.628 15.942l-1.548 0.8-0.439-1.283 2.027-1.001-0.040 1.484zM20.727 9.322c0 0.918-0.219 1.785-0.599 2.559l-4.181-1.899c-0.044-0.573-0.341-1.075-0.788-1.388l1.464-4.86c2.378 0.756 4.105 2.974 4.105 5.588zM8.938 9.322c0-3.235 2.644-5.867 5.894-5.867 0.253 0 0.5 0.021 0.745 0.052l-1.432 4.754c-0.019-0.001-0.037-0.006-0.057-0.006-1.033 0-1.873 0.837-1.873 1.867s0.84 1.867 1.873 1.867c0.694 0 1.294-0.383 1.618-0.945l3.862 1.755c-1.075 1.446-2.795 2.39-4.737 2.39-3.25 0-5.894-2.632-5.894-5.867zM14.894 10.122c0 0.441-0.362 0.8-0.806 0.8s-0.806-0.359-0.806-0.8c0-0.441 0.362-0.8 0.806-0.8s0.806 0.359 0.806 0.8zM2.465 25.146c-0.236 0.234-0.619 0.234-0.854 0.001-0.114-0.114-0.176-0.263-0.176-0.423s0.062-0.309 0.176-0.421l0.962-0.958 0.851 0.848-0.959 0.955zM5.679 28.88c-0.236 0.234-0.619 0.235-0.855 0.001-0.114-0.114-0.176-0.263-0.176-0.423s0.062-0.309 0.176-0.421l0.963-0.959 0.852 0.848-0.96 0.955zM9.16 25.411c-0.001 0-0.001 0-0.002 0.001l-1.765 1.76-0.852-0.848 1.763-1.755c0 0 0 0 0-0s0.001-0.001 0.002-0.001c0.040-0.040 0.065-0.088 0.090-0.135 0.007-0.014 0.020-0.026 0.026-0.040 0.017-0.041 0.019-0.085 0.026-0.129 0.003-0.025 0.014-0.047 0.014-0.073 0-0.036-0.013-0.070-0.020-0.106-0.006-0.032-0.006-0.065-0.019-0.095-0.020-0.050-0.055-0.094-0.091-0.138-0.010-0.012-0.014-0.027-0.025-0.038 0 0 0 0-0.001 0s-0.001-0.002-0.001-0.002l-1.607-1.6c-0.017-0.017-0.039-0.024-0.058-0.038-0.028-0.022-0.055-0.042-0.087-0.058-0.030-0.015-0.061-0.024-0.093-0.033-0.034-0.010-0.067-0.017-0.103-0.020-0.033-0.002-0.063 0.001-0.095 0.005-0.036 0.004-0.069 0.009-0.104 0.020-0.034 0.011-0.063 0.027-0.094 0.045-0.020 0.011-0.042 0.015-0.061 0.029l-1.773 1.324-0.901-0.897 2.399-2.386 4.361 4.289-0.928 0.919zM15.979 18.394c-0.015-0.002-0.030 0.004-0.045 0.003-0.039-0.002-0.076 0.001-0.115 0.007-0.030 0.005-0.059 0.011-0.088 0.021-0.034 0.012-0.065 0.028-0.097 0.047-0.030 0.018-0.057 0.037-0.083 0.061-0.013 0.011-0.028 0.017-0.040 0.029l-4.698 5.146-4.328-4.257 2.833-2.818c0.209-0.208 0.21-0.546 0.002-0.755-0.105-0.105-0.243-0.157-0.381-0.156v-0.001l-2.219 0.013 0.028-1.607 3.104 0.027c1.265 1.294 3.029 2.101 4.981 2.101 0.437 0 0.864-0.045 1.279-0.123 0.040 0.032 0.079 0.065 0.13 0.085l2.41 0.96 0.152 0.758 0.178 0.885-3.003-0.427zM20.020 18.572l-0.313-1.558 1.446-1.080 0.947 1.257-2.080 1.381zM23.774 15.741l-0.838 0.785-0.931-1.236 0.831-0.637c0.155-0.119 0.351-0.168 0.543-0.143 0.193 0.027 0.364 0.128 0.48 0.284 0.217 0.292 0.18 0.699-0.085 0.947z"></path>
<path fill="#2e2f42" style="fill: var(--color3, #2e2f42)" d="M13.602 18.544l-2.143-2.133c-0.207-0.207-0.545-0.207-0.753 0l-2.142 2.133c-0.1 0.101-0.157 0.236-0.157 0.378s0.056 0.278 0.157 0.378l2.142 2.133c0.104 0.103 0.241 0.155 0.377 0.155s0.273-0.052 0.376-0.155l2.143-2.133c0.1-0.1 0.157-0.236 0.157-0.378s-0.057-0.278-0.157-0.378zM11.083 20.303l-1.387-1.381 1.387-1.381 1.387 1.381-1.387 1.381z"></path>
<path fill="#2e2f42" style="fill: var(--color3, #2e2f42)" d="M17.164 5.071l-0.258 1.036c0.071 0.018 1.738 0.452 1.738 2.149h1.067c-0-2.017-1.666-2.965-2.547-3.185z"></path>
<path fill="#2e2f42" style="fill: var(--color3, #2e2f42)" d="M19.711 9.322h-1.067v1.067h1.067v-1.067z"></path>
</symbol>
<symbol id="icon-diagram-1" viewBox="0 0 32 32">
<path fill="#4d5ae5" style="fill: var(--color2, #4d5ae5)" d="M14.925 14.965h1.066v4.798h-1.066v-4.797z"></path>
<path fill="#4d5ae5" style="fill: var(--color2, #4d5ae5)" d="M19.19 17.097h1.066v2.665h-1.066v-2.665z"></path>
<path fill="#4d5ae5" style="fill: var(--color2, #4d5ae5)" d="M10.661 18.696h1.066v1.066h-1.066v-1.066z"></path>
<path fill="#4d5ae5" style="fill: var(--color2, #4d5ae5)" d="M7.463 18.163h1.066v1.599h-1.066v-1.599z"></path>
<path fill="#2e2f42" style="fill: var(--color3, #2e2f42)" d="M1.599 28.291h25.587c0.883 0 1.599-0.716 1.599-1.599v-2.132c0-0.883-0.716-1.599-1.599-1.599h-0.533v-13.293l3.028-2.868c0.703 0.346 1.553 0.136 2.013-0.499s0.396-1.508-0.152-2.068-1.42-0.644-2.065-0.198c-0.644 0.446-0.873 1.292-0.542 2.002l-2.281 2.163v-1.23c0-0.883-0.716-1.599-1.599-1.599h-21.322c-0.883 0-1.599 0.716-1.599 1.599v15.992h-0.533c-0.883 0-1.599 0.716-1.599 1.599v2.132c0 0.883 0.716 1.599 1.599 1.599zM30.384 4.837c0.294 0 0.533 0.239 0.533 0.533s-0.239 0.533-0.533 0.533c-0.294 0-0.533-0.239-0.533-0.533s0.239-0.533 0.533-0.533zM3.198 6.969c0-0.294 0.239-0.533 0.533-0.533h21.322c0.294 0 0.533 0.239 0.533 0.533v2.239l-1.066 1.013v-2.186c0-0.294-0.239-0.533-0.533-0.533h-19.19c-0.294 0-0.533 0.239-0.533 0.533v13.326c0 0.294 0.239 0.533 0.533 0.533h19.19c0.294 0 0.533-0.239 0.533-0.533v-9.674l1.066-1.010v12.284h-22.388v-15.992zM7.996 13.899c-0.721-0.002-1.354 0.478-1.546 1.174s0.105 1.433 0.725 1.801c0.62 0.368 1.41 0.276 1.928-0.226l1.853 0.93c0.215 0.108 0.476 0.057 0.636-0.123l3.939-4.431 3.872 2.901c0.208 0.156 0.498 0.139 0.686-0.039l3.365-3.188v8.131h-18.124v-12.26h18.124v2.66l-3.771 3.572-3.904-2.927c-0.222-0.166-0.534-0.135-0.718 0.072l-3.993 4.493-1.493-0.746c0.011-0.064 0.018-0.129 0.020-0.193 0-0.883-0.716-1.599-1.599-1.599zM8.529 15.498c0 0.294-0.239 0.533-0.533 0.533s-0.533-0.239-0.533-0.533c0-0.294 0.239-0.533 0.533-0.533s0.533 0.239 0.533 0.533zM11.727 24.027h5.331v0.533c0 0.294-0.239 0.533-0.533 0.533h-4.264c-0.294 0-0.533-0.239-0.533-0.533v-0.533zM1.066 24.56c0-0.294 0.239-0.533 0.533-0.533h9.062v0.533c0 0.883 0.716 1.599 1.599 1.599h4.264c0.883 0 1.599-0.716 1.599-1.599v-0.533h9.062c0.294 0 0.533 0.239 0.533 0.533v2.132c0 0.294-0.239 0.533-0.533 0.533h-25.587c-0.294 0-0.533-0.239-0.533-0.533v-2.132z"></path>
</symbol>
<symbol id="icon-clock-1" viewBox="0 0 32 32">
<path fill="#2e2f42" style="fill: var(--color3, #2e2f42)" d="M31.297 15.301c-0.002-8.452-6.855-15.303-15.308-15.301s-15.303 6.855-15.301 15.308c0.001 6.658 4.307 12.551 10.649 14.576 0.061 0.019 0.124 0.029 0.187 0.029 0.121-0 0.239-0.032 0.342-0.094 0.135-0.080 0.236-0.207 0.283-0.356l3.865-12.25c1.057-0.005 1.909-0.866 1.903-1.923s-0.866-1.909-1.923-1.903c-0.284 0.001-0.565 0.067-0.82 0.191l-5.106-5.107c-0.253-0.245-0.657-0.238-0.902 0.016-0.239 0.247-0.239 0.639 0 0.886l5.103 5.109c-0.392 0.799-0.168 1.764 0.536 2.309l-3.683 11.673c-7.278-2.681-11.004-10.754-8.323-18.032s10.754-11.004 18.032-8.323c7.278 2.681 11.004 10.754 8.323 18.032-1.31 3.556-4.001 6.431-7.462 7.973l-0.398-1.874c-0.073-0.345-0.411-0.565-0.756-0.492-0.109 0.023-0.209 0.074-0.293 0.148l-3.837 3.426c-0.263 0.234-0.287 0.637-0.052 0.9 0.076 0.085 0.174 0.149 0.283 0.184l4.899 1.564c0.335 0.108 0.694-0.077 0.802-0.412 0.034-0.106 0.040-0.219 0.017-0.328l-0.391-1.839c5.664-2.388 9.342-7.942 9.329-14.089zM15.992 14.664c0.352 0 0.638 0.286 0.638 0.638s-0.286 0.638-0.638 0.638c-0.352 0-0.638-0.285-0.638-0.638s0.285-0.638 0.638-0.638zM18.093 29.528l2.184-1.948 0.603 2.84-2.787-0.892z"></path>
<path fill="#4d5ae5" style="fill: var(--color2, #4d5ae5)" d="M15.354 3.185v1.275c0 0.352 0.285 0.638 0.638 0.638s0.638-0.285 0.638-0.638v-1.275c0-0.352-0.286-0.638-0.638-0.638s-0.638 0.286-0.638 0.638z"></path>
<path fill="#4d5ae5" style="fill: var(--color2, #4d5ae5)" d="M3.876 14.664c-0.352 0-0.638 0.286-0.638 0.638s0.285 0.638 0.638 0.638h1.275c0.352 0 0.638-0.285 0.638-0.638s-0.285-0.638-0.638-0.638h-1.275z"></path>
<path fill="#4d5ae5" style="fill: var(--color2, #4d5ae5)" d="M28.108 15.939c0.352 0 0.638-0.285 0.638-0.638s-0.285-0.638-0.638-0.638h-1.275c-0.352 0-0.638 0.286-0.638 0.638s0.286 0.638 0.638 0.638h1.275z"></path>
</symbol>
<symbol id="icon-antenna-1" viewBox="0 0 32 32">
<path fill="#2e2f42" style="fill: var(--color3, #2e2f42)" d="M30.773 22.098l-8.443-8.505 0.937-4.615c0.242 0.094 0.499 0.144 0.758 0.146h0.006c1.192 0.014 2.17-0.941 2.184-2.133s-0.941-2.17-2.133-2.184c-1.192-0.014-2.17 0.941-2.184 2.133-0.003 0.255 0.039 0.509 0.125 0.749l-4.96 0.605-8.091-8.133c-0.099-0.101-0.235-0.159-0.377-0.16-0.14 0.001-0.274 0.056-0.373 0.155l-1.513 1.504c-0.208 0.208-0.208 0.546 0 0.754l0.814 0.826c-3.153 5.798-2.129 12.978 2.519 17.663 0.043 0.041 0.092 0.074 0.146 0.098-0.034 0.18-0.051 0.364-0.052 0.547v6.187h-6.4c-1.472 0.002-2.665 1.195-2.667 2.667v1.067c0 0.295 0.239 0.533 0.533 0.533h24.533c0.295 0 0.533-0.239 0.533-0.533v-1.067c-0.002-1.472-1.195-2.665-2.667-2.667h-6.4v-2.742c1.003 0.21 2.024 0.317 3.049 0.32 2.458-0.003 4.877-0.615 7.040-1.783l0.818 0.823c0.099 0.101 0.235 0.159 0.377 0.16 0.14-0.001 0.274-0.056 0.373-0.155l1.513-1.504c0.208-0.208 0.208-0.546 0-0.754zM23.28 6.233c0.418-0.415 1.093-0.414 1.509 0.004s0.414 1.093-0.004 1.508c-0.2 0.199-0.47 0.31-0.752 0.31h-0.003c-0.589-0.003-1.064-0.483-1.061-1.072 0.002-0.282 0.115-0.552 0.314-0.751h-0.002zM22.024 9.738l-0.598 2.946-1.175-1.182 1.774-1.763zM21.419 8.836l-1.92 1.909-1.485-1.493 3.405-0.415zM24.004 28.8c0.884 0 1.6 0.716 1.6 1.6v0.533h-23.467v-0.533c0-0.884 0.716-1.6 1.6-1.6h20.267zM16.537 26.667v1.067h-5.333v-1.067h5.333zM11.204 25.6v-4.053c0-1.294 1.196-2.347 2.667-2.347s2.667 1.053 2.667 2.347v4.053h-5.333zM17.604 23.904v-2.357c0-1.882-1.675-3.413-3.733-3.413-1.331-0.020-2.576 0.657-3.281 1.786-4.058-4.274-4.971-10.645-2.279-15.887l18.602 18.708c-2.872 1.461-6.165 1.873-9.309 1.163zM28.893 23.22l-21.057-21.181 0.755-0.752 7.935 7.98c0.004 0 0.006 0.007 0.010 0.010l13.115 13.191-0.757 0.752z"></path>
<path fill="#4d5ae5" style="fill: var(--color2, #4d5ae5)" d="M13.876 20.267h-0.005c-0.884-0.001-1.601 0.714-1.602 1.598s0.714 1.601 1.598 1.602h0.005c0.884 0.001 1.601-0.714 1.602-1.598s-0.714-1.601-1.598-1.602zM14.249 22.245c-0.1 0.1-0.236 0.156-0.378 0.155-0.295-0.002-0.532-0.242-0.531-0.536 0.001-0.141 0.057-0.276 0.157-0.375s0.233-0.154 0.373-0.155c0.295 0.002 0.532 0.242 0.531 0.536-0.001 0.141-0.057 0.276-0.157 0.375h0.005z"></path>
</symbol>
<symbol id="icon-phone-black-18dp-1" viewBox="0 0 24 32">
<path fill="#e5e5e5" style="fill: var(--color1, #e5e5e5)" d="M0 0h24v32h-24v-32z"></path>
<path fill="#fff" style="fill: var(--color2, #fff)" d="M-741.333-378.667h1920v896h-1920v-896z"></path>
<path fill="#000" style="fill: var(--color3, #000)" d="M-741.333-282.667h1920v800h-1920v-800z"></path>
<path fill="#2e2f42" style="fill: var(--color4, #2e2f42)" opacity="0.7" d="M-741.333-282.667h1920v800h-1920v-800z"></path>
<path fill="#fff" style="fill: var(--color2, #fff)" d="M-70.289 35.469v8.531h-28.255v-8.531h28.255zM-94.971-9.083v53.083h-10.938v-53.083h10.938zM-73.971 12.536v8.312h-24.573v-8.312h24.573zM-70.325-9.083v8.568h-28.219v-8.568h28.219zM-50.348 44h-10.573v-42.948c0-2.99 0.583-5.505 1.75-7.547 1.191-2.066 2.856-3.622 4.995-4.667 2.163-1.069 4.727-1.604 7.693-1.604 0.972 0 1.908 0.073 2.807 0.219 0.899 0.122 1.774 0.28 2.625 0.474l-0.109 7.911c-0.462-0.122-0.948-0.207-1.458-0.255s-1.106-0.073-1.787-0.073c-1.264 0-2.345 0.219-3.245 0.656-0.875 0.413-1.543 1.033-2.005 1.859s-0.693 1.835-0.693 3.026v42.948zM-42.473 4.552v7.438h-24.318v-7.438h24.318zM-22.094 44h-10.573v-42.948c0-2.99 0.583-5.505 1.75-7.547 1.191-2.066 2.856-3.622 4.995-4.667 2.163-1.069 4.727-1.604 7.693-1.604 0.972 0 1.908 0.073 2.807 0.219 0.899 0.122 1.774 0.28 2.625 0.474l-0.109 7.911c-0.462-0.122-0.948-0.207-1.458-0.255s-1.106-0.073-1.786-0.073c-1.264 0-2.346 0.219-3.245 0.656-0.875 0.413-1.543 1.033-2.005 1.859s-0.693 1.835-0.693 3.026v42.948zM-14.219 4.552v7.438h-24.318v-7.438h24.318zM10.061 44.729c-3.063 0-5.809-0.486-8.24-1.458-2.431-0.997-4.497-2.37-6.198-4.12-1.677-1.75-2.965-3.78-3.865-6.089-0.899-2.333-1.349-4.813-1.349-7.437v-1.458c0-2.99 0.425-5.724 1.276-8.203s2.066-4.63 3.646-6.453c1.604-1.823 3.549-3.22 5.833-4.193 2.285-0.997 4.861-1.495 7.729-1.495 2.795 0 5.274 0.462 7.437 1.385s3.974 2.236 5.432 3.937c1.483 1.701 2.601 3.743 3.354 6.125 0.753 2.358 1.13 4.983 1.13 7.875v4.375h-31.354v-7h21.037v-0.802c0-1.458-0.267-2.759-0.802-3.901-0.51-1.167-1.288-2.090-2.333-2.771s-2.382-1.021-4.010-1.021c-1.385 0-2.576 0.304-3.573 0.911s-1.811 1.458-2.443 2.552c-0.608 1.094-1.069 2.382-1.385 3.865-0.292 1.458-0.438 3.063-0.438 4.813v1.458c0 1.58 0.219 3.038 0.656 4.375 0.462 1.337 1.106 2.491 1.932 3.464 0.851 0.972 1.872 1.726 3.063 2.26 1.215 0.535 2.589 0.802 4.12 0.802 1.896 0 3.658-0.365 5.287-1.094 1.653-0.753 3.075-1.884 4.266-3.391l5.104 5.542c-0.826 1.191-1.957 2.333-3.391 3.427-1.41 1.094-3.111 1.993-5.104 2.698-1.993 0.681-4.266 1.021-6.818 1.021zM50.018 36.526c1.288 0 2.431-0.243 3.427-0.729 0.997-0.511 1.774-1.215 2.333-2.115 0.583-0.924 0.887-2.005 0.911-3.245h9.88c-0.024 2.771-0.766 5.238-2.224 7.401-1.458 2.139-3.415 3.828-5.87 5.068-2.455 1.215-5.201 1.823-8.24 1.823-3.062 0-5.736-0.51-8.021-1.531-2.26-1.021-4.144-2.431-5.651-4.229-1.507-1.823-2.637-3.938-3.391-6.344-0.753-2.431-1.13-5.031-1.13-7.802v-1.057c0-2.795 0.377-5.396 1.13-7.802 0.753-2.431 1.884-4.545 3.391-6.344 1.507-1.823 3.391-3.245 5.651-4.266s4.91-1.531 7.948-1.531c3.233 0 6.064 0.62 8.495 1.859 2.455 1.24 4.375 3.014 5.76 5.323 1.41 2.285 2.127 4.995 2.151 8.13h-9.88c-0.024-1.313-0.304-2.503-0.839-3.573-0.51-1.069-1.264-1.92-2.26-2.552-0.972-0.656-2.175-0.984-3.609-0.984-1.531 0-2.783 0.328-3.755 0.984-0.972 0.632-1.726 1.507-2.26 2.625-0.535 1.094-0.911 2.345-1.13 3.755-0.195 1.385-0.292 2.844-0.292 4.375v1.057c0 1.531 0.097 3.002 0.292 4.411s0.559 2.661 1.094 3.755c0.559 1.094 1.325 1.957 2.297 2.589s2.236 0.948 3.792 0.948zM93.475 4.552v7.438h-22.969v-7.438h22.969zM76.193-5.182h10.5v37.297c0 1.142 0.146 2.017 0.437 2.625 0.316 0.608 0.778 1.033 1.385 1.276 0.608 0.219 1.373 0.328 2.297 0.328 0.656 0 1.24-0.024 1.75-0.073 0.535-0.073 0.984-0.146 1.349-0.219l0.036 7.729c-0.899 0.292-1.871 0.523-2.917 0.693s-2.2 0.255-3.463 0.255c-2.309 0-4.326-0.377-6.052-1.13-1.701-0.778-3.014-2.017-3.937-3.719s-1.385-3.938-1.385-6.708v-38.354zM112.030 4.552v39.448h-10.536v-39.448h10.536zM100.838-5.729c0-1.531 0.535-2.795 1.604-3.792s2.503-1.495 4.302-1.495c1.774 0 3.196 0.498 4.266 1.495 1.094 0.997 1.641 2.26 1.641 3.792s-0.547 2.795-1.641 3.792c-1.069 0.997-2.491 1.495-4.266 1.495-1.799 0-3.233-0.498-4.302-1.495s-1.604-2.26-1.604-3.792zM135.617 36.344l8.751-31.792h10.973l-13.307 39.448h-6.636l0.219-7.656zM129.602 4.552l8.786 31.828 0.183 7.62h-6.672l-13.307-39.448h11.010zM179.184 44.729c-3.063 0-5.809-0.486-8.24-1.458-2.431-0.997-4.496-2.37-6.197-4.12-1.677-1.75-2.965-3.78-3.865-6.089-0.899-2.333-1.348-4.813-1.348-7.437v-1.458c0-2.99 0.425-5.724 1.276-8.203s2.065-4.63 3.645-6.453c1.604-1.823 3.548-3.22 5.833-4.193 2.284-0.997 4.861-1.495 7.729-1.495 2.795 0 5.275 0.462 7.437 1.385s3.973 2.236 5.432 3.937c1.483 1.701 2.601 3.743 3.355 6.125 0.753 2.358 1.129 4.983 1.129 7.875v4.375h-31.353v-7h21.036v-0.802c0-1.458-0.267-2.759-0.801-3.901-0.511-1.167-1.289-2.090-2.333-2.771-1.045-0.681-2.383-1.021-4.011-1.021-1.385 0-2.577 0.304-3.573 0.911s-1.811 1.458-2.443 2.552c-0.608 1.094-1.069 2.382-1.385 3.865-0.292 1.458-0.437 3.063-0.437 4.813v1.458c0 1.58 0.219 3.038 0.656 4.375 0.461 1.337 1.105 2.491 1.932 3.464 0.851 0.972 1.872 1.726 3.063 2.26 1.216 0.535 2.589 0.802 4.12 0.802 1.896 0 3.657-0.365 5.287-1.094 1.652-0.753 3.075-1.884 4.265-3.391l5.104 5.542c-0.827 1.191-1.956 2.333-3.391 3.427-1.409 1.094-3.111 1.993-5.104 2.698-1.993 0.681-4.265 1.021-6.817 1.021zM251.223 30.109c0-0.948-0.147-1.799-0.437-2.552-0.268-0.778-0.779-1.483-1.532-2.115-0.753-0.656-1.811-1.3-3.172-1.932-1.36-0.632-3.123-1.288-5.285-1.969-2.407-0.778-4.692-1.653-6.855-2.625-2.139-0.972-4.035-2.102-5.688-3.391-1.628-1.312-2.916-2.832-3.864-4.557-0.924-1.726-1.385-3.731-1.385-6.016 0-2.212 0.485-4.217 1.459-6.016 0.972-1.823 2.333-3.378 4.083-4.667 1.751-1.313 3.816-2.321 6.197-3.026 2.407-0.705 5.044-1.057 7.912-1.057 3.913 0 7.328 0.705 10.245 2.115 2.916 1.41 5.176 3.342 6.781 5.797 1.628 2.455 2.443 5.262 2.443 8.422h-10.865c0-1.556-0.328-2.917-0.984-4.083-0.632-1.191-1.604-2.127-2.917-2.807-1.288-0.681-2.916-1.021-4.885-1.021-1.896 0-3.475 0.292-4.739 0.875-1.264 0.559-2.212 1.325-2.844 2.297-0.632 0.948-0.948 2.017-0.948 3.208 0 0.899 0.219 1.714 0.656 2.443 0.461 0.729 1.143 1.41 2.041 2.042 0.9 0.632 2.005 1.227 3.319 1.786 1.312 0.559 2.831 1.106 4.557 1.641 2.892 0.875 5.432 1.859 7.619 2.953 2.212 1.094 4.060 2.321 5.543 3.682s2.6 2.905 3.353 4.63 1.131 3.682 1.131 5.87c0 2.309-0.449 4.375-1.349 6.198-0.899 1.823-2.199 3.366-3.901 4.63-1.701 1.264-3.731 2.224-6.088 2.88s-4.995 0.984-7.912 0.984c-2.624 0-5.213-0.34-7.765-1.021-2.552-0.705-4.873-1.762-6.963-3.172-2.067-1.41-3.719-3.208-4.959-5.396s-1.86-4.776-1.86-7.766h10.975c0 1.653 0.255 3.050 0.765 4.193s1.228 2.066 2.151 2.771c0.948 0.705 2.067 1.215 3.355 1.531 1.312 0.316 2.747 0.474 4.301 0.474 1.896 0 3.452-0.267 4.667-0.802 1.24-0.535 2.152-1.276 2.735-2.224 0.608-0.948 0.912-2.017 0.912-3.208zM268.757 24.677v-0.766c0-2.892 0.413-5.554 1.24-7.984 0.827-2.455 2.029-4.582 3.609-6.38s3.524-3.196 5.833-4.193c2.309-1.021 4.959-1.531 7.948-1.531s5.651 0.51 7.984 1.531c2.333 0.997 4.291 2.394 5.869 4.193 1.605 1.799 2.82 3.925 3.647 6.38 0.827 2.431 1.239 5.092 1.239 7.984v0.766c0 2.868-0.412 5.529-1.239 7.984-0.827 2.431-2.041 4.557-3.647 6.38-1.579 1.799-3.524 3.196-5.833 4.193-2.308 0.997-4.957 1.495-7.948 1.495-2.989 0-5.651-0.498-7.984-1.495-2.309-0.997-4.265-2.394-5.869-4.193-1.58-1.823-2.783-3.95-3.609-6.38-0.827-2.455-1.24-5.116-1.24-7.984zM279.257 23.911v0.766c0 1.653 0.145 3.196 0.437 4.63s0.753 2.698 1.385 3.792c0.656 1.069 1.508 1.908 2.552 2.516 1.045 0.608 2.321 0.911 3.828 0.911 1.459 0 2.711-0.304 3.756-0.911s1.884-1.446 2.516-2.516c0.632-1.094 1.093-2.358 1.385-3.792 0.316-1.434 0.473-2.977 0.473-4.63v-0.766c0-1.604-0.157-3.111-0.473-4.521-0.292-1.434-0.767-2.698-1.423-3.792-0.632-1.118-1.471-1.993-2.515-2.625-1.045-0.632-2.309-0.948-3.792-0.948s-2.747 0.316-3.792 0.948c-1.021 0.632-1.86 1.507-2.516 2.625-0.632 1.094-1.093 2.358-1.385 3.792-0.292 1.41-0.437 2.917-0.437 4.521zM325.157-12v56h-10.537v-56h10.537zM358.661 34.557v-30.005h10.5v39.448h-9.881l-0.619-9.443zM359.828 26.464l3.099-0.073c0 2.625-0.304 5.068-0.912 7.328-0.607 2.236-1.519 4.181-2.735 5.833-1.215 1.628-2.745 2.904-4.593 3.828-1.847 0.899-4.023 1.349-6.525 1.349-1.92 0-3.695-0.267-5.324-0.802-1.604-0.559-2.989-1.422-4.156-2.589-1.143-1.191-2.041-2.71-2.697-4.557-0.632-1.871-0.948-4.12-0.948-6.745v-25.484h10.5v25.557c0 1.167 0.133 2.151 0.401 2.953 0.291 0.802 0.692 1.458 1.203 1.969s1.105 0.875 1.787 1.094c0.704 0.219 1.483 0.328 2.333 0.328 2.163 0 3.864-0.437 5.104-1.312 1.264-0.875 2.151-2.066 2.661-3.573 0.535-1.531 0.803-3.233 0.803-5.104zM397.997 4.552v7.438h-22.968v-7.438h22.968zM380.716-5.182h10.5v37.297c0 1.142 0.147 2.017 0.439 2.625 0.316 0.608 0.777 1.033 1.385 1.276 0.607 0.219 1.373 0.328 2.296 0.328 0.657 0 1.24-0.024 1.751-0.073 0.535-0.073 0.984-0.146 1.349-0.219l0.036 7.729c-0.9 0.292-1.872 0.523-2.917 0.693-1.044 0.17-2.199 0.255-3.463 0.255-2.309 0-4.327-0.377-6.052-1.13-1.701-0.778-3.015-2.017-3.937-3.719-0.924-1.701-1.387-3.938-1.387-6.708v-38.354zM416.553 4.552v39.448h-10.536v-39.448h10.536zM405.361-5.729c0-1.531 0.535-2.795 1.604-3.792s2.503-1.495 4.301-1.495c1.775 0 3.197 0.498 4.267 1.495 1.093 0.997 1.64 2.26 1.64 3.792s-0.547 2.795-1.64 3.792c-1.069 0.997-2.492 1.495-4.267 1.495-1.799 0-3.232-0.498-4.301-1.495s-1.604-2.26-1.604-3.792zM425.047 24.677v-0.766c0-2.892 0.413-5.554 1.24-7.984 0.827-2.455 2.029-4.582 3.609-6.38s3.524-3.196 5.833-4.193c2.309-1.021 4.959-1.531 7.948-1.531s5.651 0.51 7.984 1.531c2.333 0.997 4.291 2.394 5.871 4.193 1.604 1.799 2.819 3.925 3.645 6.38 0.827 2.431 1.24 5.092 1.24 7.984v0.766c0 2.868-0.413 5.529-1.24 7.984-0.827 2.431-2.041 4.557-3.645 6.38-1.58 1.799-3.525 3.196-5.833 4.193-2.309 0.997-4.959 1.495-7.948 1.495-2.991 0-5.652-0.498-7.985-1.495-2.308-0.997-4.265-2.394-5.869-4.193-1.58-1.823-2.783-3.95-3.609-6.38-0.827-2.455-1.24-5.116-1.24-7.984zM435.547 23.911v0.766c0 1.653 0.147 3.196 0.437 4.63 0.292 1.434 0.755 2.698 1.387 3.792 0.656 1.069 1.507 1.908 2.552 2.516 1.044 0.608 2.32 0.911 3.828 0.911 1.457 0 2.709-0.304 3.755-0.911s1.884-1.446 2.516-2.516c0.632-1.094 1.093-2.358 1.385-3.792 0.316-1.434 0.473-2.977 0.473-4.63v-0.766c0-1.604-0.157-3.111-0.473-4.521-0.292-1.434-0.765-2.698-1.423-3.792-0.631-1.118-1.469-1.993-2.515-2.625s-2.309-0.948-3.792-0.948-2.747 0.316-3.792 0.948c-1.020 0.632-1.859 1.507-2.515 2.625-0.632 1.094-1.095 2.358-1.387 3.792-0.291 1.41-0.437 2.917-0.437 4.521zM480.644 12.974v31.026h-10.5v-39.448h9.844l0.656 8.422zM479.113 22.891h-2.844c0-2.917 0.377-5.542 1.131-7.875 0.753-2.358 1.811-4.363 3.172-6.016 1.361-1.677 2.977-2.953 4.848-3.828 1.896-0.899 4.011-1.349 6.344-1.349 1.848 0 3.537 0.267 5.068 0.802 1.532 0.535 2.844 1.385 3.937 2.552 1.119 1.167 1.969 2.71 2.552 4.63 0.608 1.92 0.912 4.266 0.912 7.036v25.156h-10.573v-25.193c0-1.75-0.243-3.111-0.729-4.083-0.485-0.972-1.203-1.653-2.151-2.042-0.924-0.413-2.065-0.62-3.427-0.62-1.411 0-2.637 0.28-3.683 0.839-1.021 0.559-1.872 1.337-2.552 2.333-0.656 0.972-1.155 2.115-1.495 3.427s-0.511 2.722-0.511 4.229zM535.039 33.099c0-0.753-0.219-1.434-0.656-2.042s-1.252-1.167-2.443-1.677c-1.167-0.535-2.856-1.021-5.068-1.458-1.993-0.437-3.852-0.984-5.577-1.641-1.701-0.681-3.184-1.495-4.448-2.443-1.24-0.948-2.212-2.066-2.917-3.354-0.704-1.313-1.057-2.807-1.057-4.484 0-1.653 0.353-3.208 1.057-4.667 0.729-1.458 1.763-2.747 3.099-3.865 1.361-1.142 3.015-2.029 4.959-2.661 1.969-0.656 4.181-0.984 6.636-0.984 3.427 0 6.368 0.547 8.823 1.641 2.479 1.094 4.375 2.601 5.688 4.521 1.336 1.896 2.004 4.059 2.004 6.49h-10.5c0-1.021-0.219-1.932-0.656-2.734-0.413-0.826-1.069-1.47-1.968-1.932-0.876-0.486-2.017-0.729-3.428-0.729-1.167 0-2.175 0.207-3.025 0.62-0.851 0.389-1.507 0.924-1.969 1.604-0.437 0.656-0.656 1.385-0.656 2.188 0 0.608 0.121 1.155 0.365 1.641 0.267 0.462 0.692 0.887 1.276 1.276 0.583 0.389 1.336 0.753 2.26 1.094 0.948 0.316 2.115 0.608 3.5 0.875 2.844 0.583 5.384 1.349 7.62 2.297 2.236 0.924 4.011 2.187 5.323 3.792 1.312 1.58 1.968 3.658 1.968 6.234 0 1.75-0.388 3.354-1.167 4.813-0.777 1.458-1.895 2.734-3.353 3.828-1.459 1.069-3.208 1.908-5.251 2.516-2.017 0.583-4.289 0.875-6.817 0.875-3.671 0-6.781-0.656-9.333-1.969-2.528-1.313-4.448-2.977-5.76-4.995-1.288-2.042-1.932-4.132-1.932-6.271h9.952c0.049 1.434 0.413 2.589 1.095 3.464 0.704 0.875 1.592 1.507 2.661 1.896 1.093 0.389 2.272 0.583 3.536 0.583 1.361 0 2.492-0.182 3.391-0.547 0.9-0.389 1.58-0.899 2.041-1.531 0.487-0.656 0.729-1.41 0.729-2.26zM-73.389 124h-10.573v-42.948c0-2.99 0.583-5.505 1.75-7.547 1.191-2.066 2.856-3.621 4.995-4.667 2.163-1.069 4.727-1.604 7.693-1.604 0.972 0 1.908 0.073 2.807 0.219 0.899 0.122 1.774 0.28 2.625 0.474l-0.109 7.911c-0.462-0.121-0.948-0.207-1.458-0.255s-1.106-0.073-1.786-0.073c-1.264 0-2.345 0.219-3.245 0.656-0.875 0.413-1.543 1.033-2.005 1.859s-0.693 1.835-0.693 3.026v42.948zM-65.514 84.552v7.437h-24.318v-7.437h24.318zM-60.193 104.677v-0.766c0-2.892 0.413-5.554 1.24-7.984 0.826-2.455 2.029-4.582 3.609-6.38s3.524-3.196 5.833-4.193c2.309-1.021 4.958-1.531 7.948-1.531s5.651 0.51 7.984 1.531c2.333 0.997 4.29 2.394 5.87 4.193 1.604 1.799 2.819 3.925 3.646 6.38 0.826 2.431 1.24 5.092 1.24 7.984v0.766c0 2.868-0.413 5.529-1.24 7.984-0.826 2.431-2.042 4.557-3.646 6.38-1.58 1.799-3.524 3.196-5.833 4.193s-4.958 1.495-7.948 1.495c-2.99 0-5.651-0.498-7.984-1.495-2.309-0.997-4.266-2.394-5.87-4.193-1.58-1.823-2.783-3.95-3.609-6.38-0.826-2.455-1.24-5.116-1.24-7.984zM-49.693 103.911v0.766c0 1.653 0.146 3.196 0.437 4.63s0.753 2.698 1.385 3.792c0.656 1.069 1.507 1.908 2.552 2.516s2.321 0.911 3.828 0.911c1.458 0 2.71-0.304 3.755-0.911s1.884-1.446 2.516-2.516c0.632-1.094 1.094-2.358 1.385-3.792 0.316-1.434 0.474-2.977 0.474-4.63v-0.766c0-1.604-0.158-3.111-0.474-4.521-0.292-1.434-0.766-2.698-1.422-3.792-0.632-1.118-1.47-1.993-2.516-2.625s-2.309-0.948-3.792-0.948c-1.483 0-2.747 0.316-3.792 0.948-1.021 0.632-1.859 1.507-2.516 2.625-0.632 1.094-1.094 2.358-1.385 3.792-0.292 1.41-0.437 2.917-0.437 4.521zM-4.377 93.156v30.844h-10.5v-39.448h9.88l0.62 8.604zM7.509 84.297l-0.182 9.734c-0.51-0.073-1.13-0.134-1.859-0.182-0.705-0.073-1.349-0.109-1.932-0.109-1.483 0-2.771 0.194-3.865 0.583-1.069 0.365-1.969 0.911-2.698 1.641-0.705 0.729-1.24 1.616-1.604 2.661-0.34 1.045-0.535 2.236-0.583 3.573l-2.115-0.656c0-2.552 0.255-4.897 0.766-7.036 0.51-2.163 1.252-4.047 2.224-5.651 0.997-1.604 2.212-2.844 3.646-3.719s3.075-1.313 4.922-1.313c0.583 0 1.179 0.049 1.786 0.146 0.608 0.073 1.106 0.182 1.495 0.328zM41.995 70.917l11.083 24.208 11.083-24.208h11.922l-17.464 33.76v19.323h-11.083v-19.323l-17.5-33.76h11.958zM77.687 104.677v-0.766c0-2.892 0.413-5.554 1.24-7.984 0.826-2.455 2.029-4.582 3.609-6.38s3.524-3.196 5.833-4.193c2.309-1.021 4.958-1.531 7.948-1.531s5.651 0.51 7.984 1.531c2.333 0.997 4.29 2.394 5.87 4.193 1.604 1.799 2.819 3.925 3.646 6.38 0.826 2.431 1.24 5.092 1.24 7.984v0.766c0 2.868-0.413 5.529-1.24 7.984-0.826 2.431-2.042 4.557-3.646 6.38-1.58 1.799-3.524 3.196-5.833 4.193s-4.958 1.495-7.948 1.495-5.651-0.498-7.984-1.495c-2.309-0.997-4.266-2.394-5.87-4.193-1.58-1.823-2.783-3.95-3.609-6.38-0.826-2.455-1.24-5.116-1.24-7.984zM88.187 103.911v0.766c0 1.653 0.146 3.196 0.437 4.63s0.753 2.698 1.385 3.792c0.656 1.069 1.507 1.908 2.552 2.516s2.321 0.911 3.828 0.911c1.458 0 2.71-0.304 3.755-0.911s1.884-1.446 2.516-2.516c0.632-1.094 1.094-2.358 1.385-3.792 0.316-1.434 0.474-2.977 0.474-4.63v-0.766c0-1.604-0.158-3.111-0.474-4.521-0.292-1.434-0.766-2.698-1.422-3.792-0.632-1.118-1.471-1.993-2.516-2.625s-2.309-0.948-3.792-0.948c-1.483 0-2.747 0.316-3.792 0.948-1.021 0.632-1.859 1.507-2.516 2.625-0.632 1.094-1.094 2.358-1.385 3.792-0.292 1.41-0.437 2.917-0.437 4.521zM146.336 114.557v-30.005h10.5v39.448h-9.88l-0.62-9.443zM147.503 106.464l3.099-0.073c0 2.625-0.303 5.068-0.911 7.328-0.608 2.236-1.52 4.181-2.735 5.833-1.215 1.628-2.747 2.904-4.593 3.828-1.848 0.899-4.023 1.349-6.527 1.349-1.92 0-3.694-0.267-5.323-0.802-1.604-0.559-2.99-1.422-4.156-2.589-1.142-1.191-2.042-2.71-2.698-4.557-0.632-1.871-0.948-4.12-0.948-6.745v-25.484h10.5v25.557c0 1.167 0.134 2.151 0.401 2.953 0.292 0.802 0.693 1.458 1.204 1.969 0.509 0.51 1.105 0.875 1.785 1.094 0.705 0.219 1.483 0.328 2.333 0.328 2.164 0 3.865-0.437 5.105-1.312 1.263-0.875 2.151-2.066 2.661-3.573 0.535-1.531 0.801-3.233 0.801-5.104zM176.851 93.156v30.844h-10.5v-39.448h9.88l0.62 8.604zM188.736 84.297l-0.183 9.734c-0.511-0.073-1.131-0.134-1.859-0.182-0.705-0.073-1.349-0.109-1.933-0.109-1.483 0-2.771 0.194-3.864 0.583-1.069 0.365-1.969 0.911-2.697 1.641-0.705 0.729-1.24 1.616-1.605 2.661-0.34 1.045-0.535 2.236-0.583 3.573l-2.115-0.656c0-2.552 0.255-4.897 0.765-7.036 0.511-2.163 1.252-4.047 2.224-5.651 0.997-1.604 2.212-2.844 3.647-3.719 1.433-0.875 3.075-1.313 4.921-1.313 0.583 0 1.179 0.049 1.787 0.146 0.608 0.073 1.105 0.182 1.495 0.328zM236.712 100.703h-13.636l-0.072-7.51h11.448c2.017 0 3.669-0.255 4.957-0.766 1.289-0.535 2.249-1.3 2.881-2.297 0.656-1.021 0.984-2.261 0.984-3.719 0-1.653-0.316-2.99-0.948-4.010-0.608-1.021-1.568-1.762-2.88-2.224-1.288-0.462-2.953-0.693-4.995-0.693h-7.584v44.516h-10.937v-53.083h18.521c3.087 0 5.845 0.292 8.276 0.875 2.455 0.583 4.533 1.47 6.235 2.661s3.001 2.698 3.9 4.521c0.9 1.799 1.349 3.937 1.349 6.417 0 2.187-0.499 4.205-1.495 6.052-0.972 1.847-2.516 3.354-4.631 4.521-2.089 1.167-4.824 1.811-8.203 1.932l-3.172 2.807zM236.239 124h-16.152l4.267-8.531h11.885c1.92 0 3.487-0.304 4.703-0.911 1.215-0.632 2.115-1.483 2.697-2.552 0.584-1.069 0.876-2.297 0.876-3.682 0-1.556-0.268-2.905-0.803-4.047-0.511-1.142-1.337-2.017-2.479-2.625-1.143-0.632-2.649-0.948-4.521-0.948h-10.536l0.072-7.51h13.125l2.516 2.953c3.232-0.049 5.833 0.523 7.801 1.713 1.993 1.167 3.44 2.686 4.339 4.557 0.924 1.871 1.385 3.877 1.385 6.016 0 3.403-0.741 6.271-2.224 8.604-1.483 2.309-3.657 4.047-6.525 5.214-2.844 1.167-6.32 1.75-10.427 1.75zM287.789 114.557v-30.005h10.5v39.448h-9.881l-0.619-9.443zM288.956 106.464l3.099-0.073c0 2.625-0.304 5.068-0.912 7.328-0.608 2.236-1.519 4.181-2.735 5.833-1.215 1.628-2.745 2.904-4.593 3.828-1.847 0.899-4.023 1.349-6.525 1.349-1.921 0-3.695-0.267-5.324-0.802-1.604-0.559-2.989-1.422-4.156-2.589-1.143-1.191-2.041-2.71-2.697-4.557-0.632-1.871-0.948-4.12-0.948-6.745v-25.484h10.5v25.557c0 1.167 0.133 2.151 0.401 2.953 0.291 0.802 0.692 1.458 1.203 1.969s1.105 0.875 1.787 1.094c0.704 0.219 1.483 0.328 2.333 0.328 2.163 0 3.864-0.437 5.104-1.312 1.264-0.875 2.151-2.066 2.661-3.573 0.535-1.531 0.803-3.233 0.803-5.104zM329.131 113.099c0-0.753-0.219-1.434-0.656-2.042s-1.252-1.167-2.443-1.677c-1.167-0.535-2.856-1.021-5.068-1.458-1.993-0.437-3.852-0.984-5.577-1.641-1.701-0.681-3.184-1.495-4.448-2.443-1.24-0.948-2.212-2.066-2.917-3.354-0.704-1.313-1.057-2.807-1.057-4.484 0-1.653 0.353-3.208 1.057-4.667 0.729-1.458 1.763-2.747 3.099-3.865 1.361-1.142 3.015-2.030 4.959-2.661 1.969-0.656 4.181-0.984 6.636-0.984 3.427 0 6.368 0.547 8.823 1.641 2.479 1.094 4.375 2.601 5.688 4.521 1.336 1.896 2.004 4.059 2.004 6.49h-10.5c0-1.021-0.219-1.932-0.656-2.734-0.413-0.826-1.069-1.471-1.968-1.932-0.876-0.486-2.017-0.729-3.428-0.729-1.167 0-2.175 0.207-3.025 0.62-0.851 0.389-1.507 0.924-1.969 1.604-0.437 0.656-0.656 1.385-0.656 2.187 0 0.608 0.121 1.155 0.365 1.641 0.267 0.462 0.692 0.887 1.276 1.276 0.583 0.389 1.336 0.753 2.26 1.094 0.948 0.316 2.115 0.608 3.5 0.875 2.844 0.583 5.384 1.349 7.62 2.297 2.236 0.924 4.011 2.187 5.323 3.792 1.312 1.58 1.969 3.658 1.969 6.234 0 1.75-0.389 3.354-1.167 4.813-0.779 1.458-1.896 2.734-3.355 3.828-1.459 1.069-3.208 1.908-5.251 2.516-2.017 0.583-4.289 0.875-6.817 0.875-3.669 0-6.781-0.656-9.333-1.969-2.528-1.313-4.448-2.977-5.76-4.995-1.288-2.042-1.932-4.132-1.932-6.271h9.952c0.049 1.434 0.413 2.589 1.095 3.464 0.704 0.875 1.592 1.507 2.661 1.896 1.093 0.389 2.272 0.583 3.536 0.583 1.361 0 2.492-0.182 3.391-0.547 0.9-0.389 1.58-0.899 2.041-1.531 0.487-0.656 0.729-1.41 0.729-2.26zM358.733 84.552v39.448h-10.536v-39.448h10.536zM347.541 74.271c0-1.531 0.535-2.795 1.604-3.792s2.503-1.495 4.301-1.495c1.775 0 3.197 0.498 4.267 1.495 1.093 0.997 1.64 2.26 1.64 3.792s-0.547 2.795-1.64 3.792c-1.069 0.997-2.492 1.495-4.267 1.495-1.799 0-3.232-0.498-4.301-1.495s-1.604-2.26-1.604-3.792zM379.185 92.974v31.026h-10.5v-39.448h9.844l0.656 8.422zM377.655 102.891h-2.844c0-2.917 0.376-5.542 1.129-7.875 0.755-2.358 1.812-4.363 3.172-6.016 1.361-1.677 2.977-2.953 4.849-3.828 1.896-0.899 4.011-1.349 6.344-1.349 1.847 0 3.536 0.267 5.068 0.802 1.531 0.535 2.843 1.385 3.937 2.552 1.117 1.167 1.968 2.71 2.552 4.63 0.608 1.92 0.911 4.266 0.911 7.036v25.156h-10.572v-25.193c0-1.75-0.244-3.111-0.729-4.083-0.487-0.972-1.203-1.653-2.151-2.042-0.924-0.413-2.067-0.62-3.428-0.62-1.409 0-2.637 0.279-3.681 0.839-1.021 0.559-1.872 1.337-2.552 2.333-0.657 0.972-1.155 2.115-1.496 3.427-0.34 1.313-0.509 2.722-0.509 4.229zM430.408 124.729c-3.063 0-5.809-0.486-8.24-1.458-2.431-0.997-4.496-2.37-6.197-4.12-1.677-1.75-2.965-3.78-3.865-6.089-0.899-2.333-1.348-4.813-1.348-7.437v-1.458c0-2.99 0.425-5.724 1.276-8.203s2.065-4.63 3.645-6.453c1.604-1.823 3.548-3.221 5.833-4.193 2.285-0.997 4.861-1.495 7.729-1.495 2.795 0 5.275 0.462 7.437 1.385s3.975 2.236 5.432 3.938c1.483 1.701 2.601 3.743 3.355 6.125 0.753 2.358 1.131 4.983 1.131 7.875v4.375h-31.355v-7h21.036v-0.802c0-1.458-0.267-2.759-0.801-3.901-0.511-1.167-1.288-2.090-2.333-2.771s-2.383-1.021-4.011-1.021c-1.385 0-2.576 0.304-3.573 0.911-0.996 0.608-1.811 1.458-2.443 2.552-0.608 1.094-1.069 2.382-1.385 3.865-0.292 1.458-0.437 3.063-0.437 4.813v1.458c0 1.58 0.219 3.038 0.656 4.375 0.463 1.337 1.107 2.491 1.932 3.464 0.851 0.972 1.872 1.726 3.063 2.26 1.216 0.535 2.589 0.802 4.12 0.802 1.896 0 3.659-0.365 5.287-1.094 1.653-0.753 3.075-1.884 4.265-3.391l5.104 5.542c-0.827 1.191-1.956 2.333-3.391 3.427-1.409 1.094-3.111 1.993-5.104 2.698-1.993 0.681-4.265 1.021-6.817 1.021zM475.396 113.099c0-0.753-0.219-1.434-0.656-2.042s-1.252-1.167-2.443-1.677c-1.167-0.535-2.856-1.021-5.068-1.458-1.993-0.437-3.852-0.984-5.579-1.641-1.701-0.681-3.184-1.495-4.448-2.443-1.239-0.948-2.211-2.066-2.916-3.354-0.705-1.313-1.057-2.807-1.057-4.484 0-1.653 0.352-3.208 1.057-4.667 0.729-1.458 1.763-2.747 3.099-3.865 1.361-1.142 3.015-2.030 4.959-2.661 1.968-0.656 4.18-0.984 6.635-0.984 3.428 0 6.369 0.547 8.824 1.641 2.479 1.094 4.375 2.601 5.687 4.521 1.337 1.896 2.005 4.059 2.005 6.49h-10.5c0-1.021-0.219-1.932-0.656-2.734-0.413-0.826-1.069-1.471-1.969-1.932-0.875-0.486-2.017-0.729-3.427-0.729-1.167 0-2.175 0.207-3.025 0.62-0.851 0.389-1.508 0.924-1.969 1.604-0.437 0.656-0.656 1.385-0.656 2.187 0 0.608 0.121 1.155 0.364 1.641 0.268 0.462 0.693 0.887 1.276 1.276 0.584 0.389 1.337 0.753 2.261 1.094 0.948 0.316 2.115 0.608 3.5 0.875 2.843 0.583 5.383 1.349 7.619 2.297 2.237 0.924 4.011 2.187 5.324 3.792 1.312 1.58 1.968 3.658 1.968 6.234 0 1.75-0.388 3.354-1.167 4.813-0.777 1.458-1.896 2.734-3.353 3.828-1.459 1.069-3.209 1.908-5.251 2.516-2.017 0.583-4.289 0.875-6.817 0.875-3.671 0-6.781-0.656-9.333-1.969-2.528-1.313-4.448-2.977-5.76-4.995-1.289-2.042-1.933-4.132-1.933-6.271h9.953c0.049 1.434 0.413 2.589 1.093 3.464 0.705 0.875 1.592 1.507 2.663 1.896 1.093 0.389 2.272 0.583 3.536 0.583 1.361 0 2.491-0.182 3.391-0.547 0.899-0.389 1.58-0.899 2.041-1.531 0.487-0.656 0.729-1.41 0.729-2.26zM515.244 113.099c0-0.753-0.219-1.434-0.657-2.042-0.437-0.608-1.251-1.167-2.443-1.677-1.167-0.535-2.855-1.021-5.067-1.458-1.993-0.437-3.853-0.984-5.579-1.641-1.701-0.681-3.184-1.495-4.448-2.443-1.24-0.948-2.212-2.066-2.916-3.354-0.705-1.313-1.057-2.807-1.057-4.484 0-1.653 0.352-3.208 1.057-4.667 0.729-1.458 1.761-2.747 3.099-3.865 1.361-1.142 3.013-2.030 4.959-2.661 1.968-0.656 4.18-0.984 6.635-0.984 3.427 0 6.368 0.547 8.823 1.641 2.48 1.094 4.376 2.601 5.688 4.521 1.337 1.896 2.005 4.059 2.005 6.49h-10.5c0-1.021-0.219-1.932-0.656-2.734-0.413-0.826-1.069-1.471-1.969-1.932-0.875-0.486-2.017-0.729-3.427-0.729-1.167 0-2.176 0.207-3.027 0.62-0.851 0.389-1.507 0.924-1.968 1.604-0.437 0.656-0.656 1.385-0.656 2.187 0 0.608 0.121 1.155 0.364 1.641 0.268 0.462 0.693 0.887 1.276 1.276 0.584 0.389 1.337 0.753 2.26 1.094 0.948 0.316 2.115 0.608 3.5 0.875 2.844 0.583 5.384 1.349 7.62 2.297 2.236 0.924 4.011 2.187 5.323 3.792 1.313 1.58 1.969 3.658 1.969 6.234 0 1.75-0.389 3.354-1.167 4.813s-1.896 2.734-3.355 3.828c-1.457 1.069-3.208 1.908-5.249 2.516-2.017 0.583-4.291 0.875-6.817 0.875-3.671 0-6.781-0.656-9.333-1.969-2.528-1.313-4.448-2.977-5.761-4.995-1.288-2.042-1.932-4.132-1.932-6.271h9.953c0.048 1.434 0.413 2.589 1.093 3.464 0.705 0.875 1.592 1.507 2.661 1.896 1.095 0.389 2.273 0.583 3.537 0.583 1.36 0 2.491-0.182 3.391-0.547 0.899-0.389 1.579-0.899 2.041-1.531 0.485-0.656 0.729-1.41 0.729-2.26z"></path>
<path fill="#2e2f42" style="fill: var(--color4, #2e2f42)" opacity="0.4" d="M-741.333-378.667h1920v901.333h-1920v-901.333z"></path>
<path fill="#fcfcfc" style="fill: var(--color5, #fcfcfc)" d="M-48-272h533.333c2.946 0 5.333 2.388 5.333 5.333v768c0 2.946-2.388 5.333-5.333 5.333h-533.333c-2.946 0-5.333-2.388-5.333-5.333v-768c0-2.946 2.388-5.333 5.333-5.333z"></path>
<path fill="none" stroke="#2e2f42" style="stroke: var(--color4, #2e2f42)" stroke-linejoin="miter" stroke-linecap="butt" stroke-miterlimit="4" stroke-width="1.3333" d="M-16-10h469.333c2.577 0 4.667 2.089 4.667 4.667v42.667c0 2.577-2.089 4.667-4.667 4.667h-469.333c-2.577 0-4.667-2.089-4.667-4.667v-42.667c0-2.577 2.089-4.667 4.667-4.667z"></path>
<path fill="#2e2f42" style="fill: var(--color4, #2e2f42)" d="M19.635 18.487l-2.451-0.28c-0.589-0.067-1.167 0.135-1.582 0.55l-1.775 1.775c-2.731-1.389-4.969-3.618-6.359-6.359l1.785-1.785c0.415-0.415 0.618-0.994 0.55-1.582l-0.28-2.432c-0.116-0.975-0.936-1.708-1.92-1.708h-1.669c-1.090 0-1.997 0.907-1.93 1.997 0.511 8.24 7.102 14.821 15.332 15.332 1.090 0.068 1.997-0.839 1.997-1.93v-1.669c0.010-0.975-0.724-1.795-1.698-1.911z"></path>
</symbol>
<symbol id="icon-frame-3" viewBox="0 0 32 32">
<path fill="#e5e5e5" style="fill: var(--color1, #e5e5e5)" d="M0 0h32v32h-32v-32z"></path>
<path fill="#fff" style="fill: var(--color2, #fff)" d="M-1644-4405.333h1920v4624h-1920v-4624z"></path>
<path fill="#2e2f42" style="fill: var(--color4, #2e2f42)" d="M-1644-197.333h1920v416h-1920v-416z"></path>
<path fill="#4d5ae5" style="fill: var(--color6, #4d5ae5)" d="M-150.667-10.667h209.333c2.946 0 5.333 2.388 5.333 5.333v42.667c0 2.946-2.388 5.333-5.333 5.333h-209.333c-2.946 0-5.333-2.388-5.333-5.333v-42.667c0-2.946 2.388-5.333 5.333-5.333z"></path>
<path fill="#fff" style="fill: var(--color2, #fff)" d="M32 2.667l-32 15 10.227 3.156 15.773-12.323-11.998 13.488 0.010 0.003-0.012-0.003v7.345l5.735-5.576 7.265 2.242 5-23.333z"></path>
</symbol>
<symbol id="icon-close-black-18dp-2-1" viewBox="0 0 32 32">
<path d="M32 3.223l-3.223-3.223-12.777 12.777-12.777-12.777-3.223 3.223 12.777 12.777-12.777 12.777 3.223 3.223 12.777-12.777 12.777 12.777 3.223-3.223-12.777-12.777 12.777-12.777z"></path>
</symbol>
<symbol id="icon-email-black-18dp-1" viewBox="0 0 24 32">
<path fill="#e5e5e5" style="fill: var(--color1, #e5e5e5)" d="M0 0h24v32h-24v-32z"></path>
<path fill="#fff" style="fill: var(--color2, #fff)" d="M-741.333-466.667h1920v896h-1920v-896z"></path>
<path fill="#000" style="fill: var(--color3, #000)" d="M-741.333-370.667h1920v800h-1920v-800z"></path>
<path fill="#2e2f42" style="fill: var(--color4, #2e2f42)" opacity="0.7" d="M-741.333-370.667h1920v800h-1920v-800z"></path>
<path fill="#fff" style="fill: var(--color2, #fff)" d="M-70.289-52.531v8.531h-28.255v-8.531h28.255zM-94.971-97.083v53.083h-10.938v-53.083h10.938zM-73.971-75.464v8.313h-24.573v-8.313h24.573zM-70.325-97.083v8.568h-28.219v-8.568h28.219zM-50.348-44h-10.573v-42.948c0-2.99 0.583-5.505 1.75-7.547 1.191-2.066 2.856-3.621 4.995-4.667 2.163-1.069 4.727-1.604 7.693-1.604 0.972 0 1.908 0.073 2.807 0.219 0.899 0.122 1.774 0.28 2.625 0.474l-0.109 7.911c-0.462-0.121-0.948-0.207-1.458-0.255s-1.106-0.073-1.787-0.073c-1.264 0-2.345 0.219-3.245 0.656-0.875 0.413-1.543 1.033-2.005 1.859s-0.693 1.835-0.693 3.026v42.948zM-42.473-83.448v7.437h-24.318v-7.437h24.318zM-22.094-44h-10.573v-42.948c0-2.99 0.583-5.505 1.75-7.547 1.191-2.066 2.856-3.621 4.995-4.667 2.163-1.069 4.727-1.604 7.693-1.604 0.972 0 1.908 0.073 2.807 0.219 0.899 0.122 1.774 0.28 2.625 0.474l-0.109 7.911c-0.462-0.121-0.948-0.207-1.458-0.255s-1.106-0.073-1.786-0.073c-1.264 0-2.346 0.219-3.245 0.656-0.875 0.413-1.543 1.033-2.005 1.859s-0.693 1.835-0.693 3.026v42.948zM-14.219-83.448v7.437h-24.318v-7.437h24.318zM10.061-43.271c-3.063 0-5.809-0.486-8.24-1.458-2.431-0.997-4.497-2.37-6.198-4.12-1.677-1.75-2.965-3.78-3.865-6.089-0.899-2.333-1.349-4.813-1.349-7.437v-1.458c0-2.99 0.425-5.724 1.276-8.203s2.066-4.63 3.646-6.453c1.604-1.823 3.549-3.221 5.833-4.193 2.285-0.997 4.861-1.495 7.729-1.495 2.795 0 5.274 0.462 7.437 1.385s3.974 2.236 5.432 3.938c1.483 1.701 2.601 3.743 3.354 6.125 0.753 2.358 1.13 4.983 1.13 7.875v4.375h-31.354v-7h21.037v-0.802c0-1.458-0.267-2.759-0.802-3.901-0.51-1.167-1.288-2.090-2.333-2.771s-2.382-1.021-4.010-1.021c-1.385 0-2.576 0.304-3.573 0.911s-1.811 1.458-2.443 2.552c-0.608 1.094-1.069 2.382-1.385 3.865-0.292 1.458-0.438 3.063-0.438 4.813v1.458c0 1.58 0.219 3.038 0.656 4.375 0.462 1.337 1.106 2.491 1.932 3.464 0.851 0.972 1.872 1.726 3.063 2.26 1.215 0.535 2.589 0.802 4.12 0.802 1.896 0 3.658-0.365 5.287-1.094 1.653-0.753 3.075-1.884 4.266-3.391l5.104 5.542c-0.826 1.191-1.957 2.333-3.391 3.427-1.41 1.094-3.111 1.993-5.104 2.698-1.993 0.681-4.266 1.021-6.818 1.021zM50.018-51.474c1.288 0 2.431-0.243 3.427-0.729 0.997-0.511 1.774-1.215 2.333-2.115 0.583-0.924 0.887-2.005 0.911-3.245h9.88c-0.024 2.771-0.766 5.238-2.224 7.401-1.458 2.139-3.415 3.828-5.87 5.068-2.455 1.215-5.201 1.823-8.24 1.823-3.062 0-5.736-0.51-8.021-1.531-2.26-1.021-4.144-2.431-5.651-4.229-1.507-1.823-2.637-3.938-3.391-6.344-0.753-2.431-1.13-5.031-1.13-7.802v-1.057c0-2.795 0.377-5.396 1.13-7.802 0.753-2.431 1.884-4.545 3.391-6.344 1.507-1.823 3.391-3.245 5.651-4.266s4.91-1.531 7.948-1.531c3.233 0 6.064 0.62 8.495 1.859 2.455 1.24 4.375 3.014 5.76 5.323 1.41 2.285 2.127 4.995 2.151 8.13h-9.88c-0.024-1.313-0.304-2.503-0.839-3.573-0.51-1.069-1.264-1.92-2.26-2.552-0.972-0.656-2.175-0.984-3.609-0.984-1.531 0-2.783 0.328-3.755 0.984-0.972 0.632-1.726 1.507-2.26 2.625-0.535 1.094-0.911 2.345-1.13 3.755-0.195 1.385-0.292 2.844-0.292 4.375v1.057c0 1.531 0.097 3.002 0.292 4.411s0.559 2.661 1.094 3.755c0.559 1.094 1.325 1.957 2.297 2.589s2.236 0.948 3.792 0.948zM93.475-83.448v7.437h-22.969v-7.437h22.969zM76.193-93.182h10.5v37.297c0 1.142 0.146 2.017 0.437 2.625 0.316 0.608 0.778 1.033 1.385 1.276 0.608 0.219 1.373 0.328 2.297 0.328 0.656 0 1.24-0.024 1.75-0.073 0.535-0.073 0.984-0.146 1.349-0.219l0.036 7.729c-0.899 0.292-1.871 0.523-2.917 0.693s-2.2 0.255-3.463 0.255c-2.309 0-4.326-0.377-6.052-1.13-1.701-0.778-3.014-2.017-3.937-3.719s-1.385-3.938-1.385-6.708v-38.354zM112.030-83.448v39.448h-10.536v-39.448h10.536zM100.838-93.729c0-1.531 0.535-2.795 1.604-3.792s2.503-1.495 4.302-1.495c1.774 0 3.196 0.498 4.266 1.495 1.094 0.997 1.641 2.26 1.641 3.792s-0.547 2.795-1.641 3.792c-1.069 0.997-2.491 1.495-4.266 1.495-1.799 0-3.233-0.498-4.302-1.495s-1.604-2.26-1.604-3.792zM135.617-51.656l8.751-31.792h10.973l-13.307 39.448h-6.636l0.219-7.656zM129.602-83.448l8.786 31.828 0.183 7.62h-6.672l-13.307-39.448h11.010zM179.184-43.271c-3.063 0-5.809-0.486-8.24-1.458-2.431-0.997-4.496-2.37-6.197-4.12-1.677-1.75-2.965-3.78-3.865-6.089-0.899-2.333-1.348-4.813-1.348-7.437v-1.458c0-2.99 0.425-5.724 1.276-8.203s2.065-4.63 3.645-6.453c1.604-1.823 3.548-3.221 5.833-4.193 2.284-0.997 4.861-1.495 7.729-1.495 2.795 0 5.275 0.462 7.437 1.385s3.973 2.236 5.432 3.938c1.483 1.701 2.601 3.743 3.355 6.125 0.753 2.358 1.129 4.983 1.129 7.875v4.375h-31.353v-7h21.036v-0.802c0-1.458-0.267-2.759-0.801-3.901-0.511-1.167-1.289-2.090-2.333-2.771-1.045-0.681-2.383-1.021-4.011-1.021-1.385 0-2.577 0.304-3.573 0.911s-1.811 1.458-2.443 2.552c-0.608 1.094-1.069 2.382-1.385 3.865-0.292 1.458-0.437 3.063-0.437 4.813v1.458c0 1.58 0.219 3.038 0.656 4.375 0.461 1.337 1.105 2.491 1.932 3.464 0.851 0.972 1.872 1.726 3.063 2.26 1.216 0.535 2.589 0.802 4.12 0.802 1.896 0 3.657-0.365 5.287-1.094 1.652-0.753 3.075-1.884 4.265-3.391l5.104 5.542c-0.827 1.191-1.956 2.333-3.391 3.427-1.409 1.094-3.111 1.993-5.104 2.698-1.993 0.681-4.265 1.021-6.817 1.021zM251.223-57.891c0-0.948-0.147-1.799-0.437-2.552-0.268-0.778-0.779-1.483-1.532-2.115-0.753-0.656-1.811-1.3-3.172-1.932-1.36-0.632-3.123-1.288-5.285-1.969-2.407-0.778-4.692-1.653-6.855-2.625-2.139-0.972-4.035-2.102-5.688-3.391-1.628-1.312-2.916-2.832-3.864-4.557-0.924-1.726-1.385-3.731-1.385-6.016 0-2.212 0.485-4.217 1.459-6.016 0.972-1.823 2.333-3.378 4.083-4.667 1.751-1.312 3.816-2.321 6.197-3.026 2.407-0.705 5.044-1.057 7.912-1.057 3.913 0 7.328 0.705 10.245 2.115 2.916 1.41 5.176 3.342 6.781 5.797 1.628 2.455 2.443 5.262 2.443 8.422h-10.865c0-1.555-0.328-2.917-0.984-4.083-0.632-1.191-1.604-2.127-2.917-2.807-1.288-0.681-2.916-1.021-4.885-1.021-1.896 0-3.475 0.292-4.739 0.875-1.264 0.559-2.212 1.325-2.844 2.297-0.632 0.948-0.948 2.017-0.948 3.208 0 0.899 0.219 1.713 0.656 2.443 0.461 0.729 1.143 1.41 2.041 2.042 0.9 0.632 2.005 1.227 3.319 1.786 1.312 0.559 2.831 1.106 4.557 1.641 2.892 0.875 5.432 1.859 7.619 2.953 2.212 1.094 4.060 2.321 5.543 3.682s2.6 2.905 3.353 4.63 1.131 3.682 1.131 5.87c0 2.309-0.449 4.375-1.349 6.198-0.899 1.823-2.199 3.366-3.901 4.63-1.701 1.264-3.731 2.224-6.088 2.88s-4.995 0.984-7.912 0.984c-2.624 0-5.213-0.34-7.765-1.021-2.552-0.705-4.873-1.762-6.963-3.172-2.067-1.41-3.719-3.208-4.959-5.396s-1.86-4.776-1.86-7.766h10.975c0 1.653 0.255 3.050 0.765 4.193s1.228 2.066 2.151 2.771c0.948 0.705 2.067 1.215 3.355 1.531 1.312 0.316 2.747 0.474 4.301 0.474 1.896 0 3.452-0.267 4.667-0.802 1.24-0.535 2.152-1.276 2.735-2.224 0.608-0.948 0.912-2.017 0.912-3.208zM268.757-63.323v-0.766c0-2.892 0.413-5.554 1.24-7.984 0.827-2.455 2.029-4.582 3.609-6.38s3.524-3.196 5.833-4.193c2.309-1.021 4.959-1.531 7.948-1.531s5.651 0.51 7.984 1.531c2.333 0.997 4.291 2.394 5.869 4.193 1.605 1.799 2.82 3.925 3.647 6.38 0.827 2.431 1.239 5.092 1.239 7.984v0.766c0 2.868-0.412 5.529-1.239 7.984-0.827 2.431-2.041 4.557-3.647 6.38-1.579 1.799-3.524 3.196-5.833 4.193-2.308 0.997-4.957 1.495-7.948 1.495-2.989 0-5.651-0.498-7.984-1.495-2.309-0.997-4.265-2.394-5.869-4.193-1.58-1.823-2.783-3.95-3.609-6.38-0.827-2.455-1.24-5.116-1.24-7.984zM279.257-64.089v0.766c0 1.653 0.145 3.196 0.437 4.63s0.753 2.698 1.385 3.792c0.656 1.069 1.508 1.908 2.552 2.516 1.045 0.608 2.321 0.911 3.828 0.911 1.459 0 2.711-0.304 3.756-0.911s1.884-1.446 2.516-2.516c0.632-1.094 1.093-2.358 1.385-3.792 0.316-1.434 0.473-2.977 0.473-4.63v-0.766c0-1.604-0.157-3.111-0.473-4.521-0.292-1.434-0.767-2.698-1.423-3.792-0.632-1.118-1.471-1.993-2.515-2.625-1.045-0.632-2.309-0.948-3.792-0.948s-2.747 0.316-3.792 0.948c-1.021 0.632-1.86 1.507-2.516 2.625-0.632 1.094-1.093 2.358-1.385 3.792-0.292 1.41-0.437 2.917-0.437 4.521zM325.157-100v56h-10.537v-56h10.537zM358.661-53.443v-30.005h10.5v39.448h-9.881l-0.619-9.443zM359.828-61.536l3.099-0.073c0 2.625-0.304 5.068-0.912 7.328-0.607 2.236-1.519 4.181-2.735 5.833-1.215 1.628-2.745 2.904-4.593 3.828-1.847 0.899-4.023 1.349-6.525 1.349-1.92 0-3.695-0.267-5.324-0.802-1.604-0.559-2.989-1.422-4.156-2.589-1.143-1.191-2.041-2.71-2.697-4.557-0.632-1.871-0.948-4.12-0.948-6.745v-25.484h10.5v25.557c0 1.167 0.133 2.151 0.401 2.953 0.291 0.802 0.692 1.458 1.203 1.969s1.105 0.875 1.787 1.094c0.704 0.219 1.483 0.328 2.333 0.328 2.163 0 3.864-0.437 5.104-1.312 1.264-0.875 2.151-2.066 2.661-3.573 0.535-1.531 0.803-3.233 0.803-5.104zM397.997-83.448v7.437h-22.968v-7.437h22.968zM380.716-93.182h10.5v37.297c0 1.142 0.147 2.017 0.439 2.625 0.316 0.608 0.777 1.033 1.385 1.276 0.607 0.219 1.373 0.328 2.296 0.328 0.657 0 1.24-0.024 1.751-0.073 0.535-0.073 0.984-0.146 1.349-0.219l0.036 7.729c-0.9 0.292-1.872 0.523-2.917 0.693-1.044 0.17-2.199 0.255-3.463 0.255-2.309 0-4.327-0.377-6.052-1.13-1.701-0.778-3.015-2.017-3.937-3.719-0.924-1.701-1.387-3.938-1.387-6.708v-38.354zM416.553-83.448v39.448h-10.536v-39.448h10.536zM405.361-93.729c0-1.531 0.535-2.795 1.604-3.792s2.503-1.495 4.301-1.495c1.775 0 3.197 0.498 4.267 1.495 1.093 0.997 1.64 2.26 1.64 3.792s-0.547 2.795-1.64 3.792c-1.069 0.997-2.492 1.495-4.267 1.495-1.799 0-3.232-0.498-4.301-1.495s-1.604-2.26-1.604-3.792zM425.047-63.323v-0.766c0-2.892 0.413-5.554 1.24-7.984 0.827-2.455 2.029-4.582 3.609-6.38s3.524-3.196 5.833-4.193c2.309-1.021 4.959-1.531 7.948-1.531s5.651 0.51 7.984 1.531c2.333 0.997 4.291 2.394 5.871 4.193 1.604 1.799 2.819 3.925 3.645 6.38 0.827 2.431 1.24 5.092 1.24 7.984v0.766c0 2.868-0.413 5.529-1.24 7.984-0.827 2.431-2.041 4.557-3.645 6.38-1.58 1.799-3.525 3.196-5.833 4.193-2.309 0.997-4.959 1.495-7.948 1.495-2.991 0-5.652-0.498-7.985-1.495-2.308-0.997-4.265-2.394-5.869-4.193-1.58-1.823-2.783-3.95-3.609-6.38-0.827-2.455-1.24-5.116-1.24-7.984zM435.547-64.089v0.766c0 1.653 0.147 3.196 0.437 4.63 0.292 1.434 0.755 2.698 1.387 3.792 0.656 1.069 1.507 1.908 2.552 2.516 1.044 0.608 2.32 0.911 3.828 0.911 1.457 0 2.709-0.304 3.755-0.911s1.884-1.446 2.516-2.516c0.632-1.094 1.093-2.358 1.385-3.792 0.316-1.434 0.473-2.977 0.473-4.63v-0.766c0-1.604-0.157-3.111-0.473-4.521-0.292-1.434-0.765-2.698-1.423-3.792-0.631-1.118-1.469-1.993-2.515-2.625s-2.309-0.948-3.792-0.948-2.747 0.316-3.792 0.948c-1.020 0.632-1.859 1.507-2.515 2.625-0.632 1.094-1.095 2.358-1.387 3.792-0.291 1.41-0.437 2.917-0.437 4.521zM480.644-75.026v31.026h-10.5v-39.448h9.844l0.656 8.422zM479.113-65.109h-2.844c0-2.917 0.377-5.542 1.131-7.875 0.753-2.358 1.811-4.363 3.172-6.016 1.361-1.677 2.977-2.953 4.848-3.828 1.896-0.899 4.011-1.349 6.344-1.349 1.848 0 3.537 0.267 5.068 0.802 1.532 0.535 2.844 1.385 3.937 2.552 1.119 1.167 1.969 2.71 2.552 4.63 0.608 1.92 0.912 4.266 0.912 7.036v25.156h-10.573v-25.193c0-1.75-0.243-3.111-0.729-4.083-0.485-0.972-1.203-1.653-2.151-2.042-0.924-0.413-2.065-0.62-3.427-0.62-1.411 0-2.637 0.279-3.683 0.839-1.021 0.559-1.872 1.337-2.552 2.333-0.656 0.972-1.155 2.115-1.495 3.427s-0.511 2.722-0.511 4.229zM535.039-54.901c0-0.753-0.219-1.434-0.656-2.042s-1.252-1.167-2.443-1.677c-1.167-0.535-2.856-1.021-5.068-1.458-1.993-0.437-3.852-0.984-5.577-1.641-1.701-0.681-3.184-1.495-4.448-2.443-1.24-0.948-2.212-2.066-2.917-3.354-0.704-1.313-1.057-2.807-1.057-4.484 0-1.653 0.353-3.208 1.057-4.667 0.729-1.458 1.763-2.747 3.099-3.865 1.361-1.142 3.015-2.030 4.959-2.661 1.969-0.656 4.181-0.984 6.636-0.984 3.427 0 6.368 0.547 8.823 1.641 2.479 1.094 4.375 2.601 5.688 4.521 1.336 1.896 2.004 4.059 2.004 6.49h-10.5c0-1.021-0.219-1.932-0.656-2.734-0.413-0.826-1.069-1.471-1.968-1.932-0.876-0.486-2.017-0.729-3.428-0.729-1.167 0-2.175 0.207-3.025 0.62-0.851 0.389-1.507 0.924-1.969 1.604-0.437 0.656-0.656 1.385-0.656 2.187 0 0.608 0.121 1.155 0.365 1.641 0.267 0.462 0.692 0.887 1.276 1.276 0.583 0.389 1.336 0.753 2.26 1.094 0.948 0.316 2.115 0.608 3.5 0.875 2.844 0.583 5.384 1.349 7.62 2.297 2.236 0.924 4.011 2.187 5.323 3.792 1.312 1.58 1.968 3.658 1.968 6.234 0 1.75-0.388 3.354-1.167 4.813-0.777 1.458-1.895 2.734-3.353 3.828-1.459 1.069-3.208 1.908-5.251 2.516-2.017 0.583-4.289 0.875-6.817 0.875-3.671 0-6.781-0.656-9.333-1.969-2.528-1.313-4.448-2.977-5.76-4.995-1.288-2.042-1.932-4.132-1.932-6.271h9.952c0.049 1.434 0.413 2.589 1.095 3.464 0.704 0.875 1.592 1.507 2.661 1.896 1.093 0.389 2.272 0.583 3.536 0.583 1.361 0 2.492-0.182 3.391-0.547 0.9-0.389 1.58-0.899 2.041-1.531 0.487-0.656 0.729-1.41 0.729-2.26zM-73.389 36h-10.573v-42.948c0-2.99 0.583-5.505 1.75-7.547 1.191-2.066 2.856-3.621 4.995-4.667 2.163-1.069 4.727-1.604 7.693-1.604 0.972 0 1.908 0.073 2.807 0.219 0.899 0.122 1.774 0.28 2.625 0.474l-0.109 7.911c-0.462-0.122-0.948-0.207-1.458-0.255s-1.106-0.073-1.786-0.073c-1.264 0-2.345 0.219-3.245 0.656-0.875 0.413-1.543 1.033-2.005 1.859s-0.693 1.835-0.693 3.026v42.948zM-65.514-3.448v7.438h-24.318v-7.438h24.318zM-60.193 16.677v-0.766c0-2.892 0.413-5.554 1.24-7.984 0.826-2.455 2.029-4.582 3.609-6.38s3.524-3.196 5.833-4.193c2.309-1.021 4.958-1.531 7.948-1.531s5.651 0.51 7.984 1.531c2.333 0.997 4.29 2.394 5.87 4.193 1.604 1.799 2.819 3.925 3.646 6.38 0.826 2.431 1.24 5.092 1.24 7.984v0.766c0 2.868-0.413 5.529-1.24 7.984-0.826 2.431-2.042 4.557-3.646 6.38-1.58 1.799-3.524 3.196-5.833 4.193s-4.958 1.495-7.948 1.495c-2.99 0-5.651-0.498-7.984-1.495-2.309-0.997-4.266-2.394-5.87-4.193-1.58-1.823-2.783-3.95-3.609-6.38-0.826-2.455-1.24-5.116-1.24-7.984zM-49.693 15.911v0.766c0 1.653 0.146 3.196 0.437 4.63s0.753 2.698 1.385 3.792c0.656 1.069 1.507 1.908 2.552 2.516s2.321 0.911 3.828 0.911c1.458 0 2.71-0.304 3.755-0.911s1.884-1.446 2.516-2.516c0.632-1.094 1.094-2.358 1.385-3.792 0.316-1.434 0.474-2.977 0.474-4.63v-0.766c0-1.604-0.158-3.111-0.474-4.521-0.292-1.434-0.766-2.698-1.422-3.792-0.632-1.118-1.47-1.993-2.516-2.625s-2.309-0.948-3.792-0.948c-1.483 0-2.747 0.316-3.792 0.948-1.021 0.632-1.859 1.507-2.516 2.625-0.632 1.094-1.094 2.358-1.385 3.792-0.292 1.41-0.437 2.917-0.437 4.521zM-4.377 5.156v30.844h-10.5v-39.448h9.88l0.62 8.604zM7.509-3.703l-0.182 9.734c-0.51-0.073-1.13-0.134-1.859-0.182-0.705-0.073-1.349-0.109-1.932-0.109-1.483 0-2.771 0.194-3.865 0.583-1.069 0.365-1.969 0.911-2.698 1.641-0.705 0.729-1.24 1.616-1.604 2.661-0.34 1.045-0.535 2.236-0.583 3.573l-2.115-0.656c0-2.552 0.255-4.898 0.766-7.036 0.51-2.163 1.252-4.047 2.224-5.651 0.997-1.604 2.212-2.844 3.646-3.719s3.075-1.313 4.922-1.313c0.583 0 1.179 0.049 1.786 0.146 0.608 0.073 1.106 0.182 1.495 0.328zM41.995-17.083l11.083 24.208 11.083-24.208h11.922l-17.464 33.76v19.323h-11.083v-19.323l-17.5-33.76h11.958zM77.687 16.677v-0.766c0-2.892 0.413-5.554 1.24-7.984 0.826-2.455 2.029-4.582 3.609-6.38s3.524-3.196 5.833-4.193c2.309-1.021 4.958-1.531 7.948-1.531s5.651 0.51 7.984 1.531c2.333 0.997 4.29 2.394 5.87 4.193 1.604 1.799 2.819 3.925 3.646 6.38 0.826 2.431 1.24 5.092 1.24 7.984v0.766c0 2.868-0.413 5.529-1.24 7.984-0.826 2.431-2.042 4.557-3.646 6.38-1.58 1.799-3.524 3.196-5.833 4.193s-4.958 1.495-7.948 1.495-5.651-0.498-7.984-1.495c-2.309-0.997-4.266-2.394-5.87-4.193-1.58-1.823-2.783-3.95-3.609-6.38-0.826-2.455-1.24-5.116-1.24-7.984zM88.187 15.911v0.766c0 1.653 0.146 3.196 0.437 4.63s0.753 2.698 1.385 3.792c0.656 1.069 1.507 1.908 2.552 2.516s2.321 0.911 3.828 0.911c1.458 0 2.71-0.304 3.755-0.911s1.884-1.446 2.516-2.516c0.632-1.094 1.094-2.358 1.385-3.792 0.316-1.434 0.474-2.977 0.474-4.63v-0.766c0-1.604-0.158-3.111-0.474-4.521-0.292-1.434-0.766-2.698-1.422-3.792-0.632-1.118-1.471-1.993-2.516-2.625s-2.309-0.948-3.792-0.948c-1.483 0-2.747 0.316-3.792 0.948-1.021 0.632-1.859 1.507-2.516 2.625-0.632 1.094-1.094 2.358-1.385 3.792-0.292 1.41-0.437 2.917-0.437 4.521zM146.336 26.557v-30.005h10.5v39.448h-9.88l-0.62-9.443zM147.503 18.464l3.099-0.073c0 2.625-0.303 5.068-0.911 7.328-0.608 2.236-1.52 4.181-2.735 5.833-1.215 1.628-2.747 2.904-4.593 3.828-1.848 0.899-4.023 1.349-6.527 1.349-1.92 0-3.694-0.267-5.323-0.802-1.604-0.559-2.99-1.422-4.156-2.589-1.142-1.191-2.042-2.71-2.698-4.557-0.632-1.871-0.948-4.12-0.948-6.745v-25.484h10.5v25.557c0 1.167 0.134 2.151 0.401 2.953 0.292 0.802 0.693 1.458 1.204 1.969 0.509 0.51 1.105 0.875 1.785 1.094 0.705 0.219 1.483 0.328 2.333 0.328 2.164 0 3.865-0.437 5.105-1.312 1.263-0.875 2.151-2.066 2.661-3.573 0.535-1.531 0.801-3.233 0.801-5.104zM176.851 5.156v30.844h-10.5v-39.448h9.88l0.62 8.604zM188.736-3.703l-0.183 9.734c-0.511-0.073-1.131-0.134-1.859-0.182-0.705-0.073-1.349-0.109-1.933-0.109-1.483 0-2.771 0.194-3.864 0.583-1.069 0.365-1.969 0.911-2.697 1.641-0.705 0.729-1.24 1.616-1.605 2.661-0.34 1.045-0.535 2.236-0.583 3.573l-2.115-0.656c0-2.552 0.255-4.898 0.765-7.036 0.511-2.163 1.252-4.047 2.224-5.651 0.997-1.604 2.212-2.844 3.647-3.719 1.433-0.875 3.075-1.313 4.921-1.313 0.583 0 1.179 0.049 1.787 0.146 0.608 0.073 1.105 0.182 1.495 0.328zM236.712 12.703h-13.636l-0.072-7.51h11.448c2.017 0 3.669-0.255 4.957-0.766 1.289-0.535 2.249-1.3 2.881-2.297 0.656-1.021 0.984-2.26 0.984-3.719 0-1.653-0.316-2.99-0.948-4.010-0.608-1.021-1.568-1.762-2.88-2.224-1.288-0.462-2.953-0.693-4.995-0.693h-7.584v44.516h-10.937v-53.083h18.521c3.087 0 5.845 0.292 8.276 0.875 2.455 0.583 4.533 1.47 6.235 2.661s3.001 2.698 3.9 4.521c0.9 1.799 1.349 3.938 1.349 6.417 0 2.188-0.499 4.205-1.495 6.052-0.972 1.847-2.516 3.354-4.631 4.521-2.089 1.167-4.824 1.811-8.203 1.932l-3.172 2.807zM236.239 36h-16.152l4.267-8.531h11.885c1.92 0 3.487-0.304 4.703-0.911 1.215-0.632 2.115-1.483 2.697-2.552 0.584-1.069 0.876-2.297 0.876-3.682 0-1.556-0.268-2.905-0.803-4.047-0.511-1.142-1.337-2.017-2.479-2.625-1.143-0.632-2.649-0.948-4.521-0.948h-10.536l0.072-7.51h13.125l2.516 2.953c3.232-0.049 5.833 0.523 7.801 1.714 1.993 1.167 3.44 2.686 4.339 4.557 0.924 1.871 1.385 3.877 1.385 6.016 0 3.403-0.741 6.271-2.224 8.604-1.483 2.309-3.657 4.047-6.525 5.214-2.844 1.167-6.32 1.75-10.427 1.75zM287.789 26.557v-30.005h10.5v39.448h-9.881l-0.619-9.443zM288.956 18.464l3.099-0.073c0 2.625-0.304 5.068-0.912 7.328-0.608 2.236-1.519 4.181-2.735 5.833-1.215 1.628-2.745 2.904-4.593 3.828-1.847 0.899-4.023 1.349-6.525 1.349-1.921 0-3.695-0.267-5.324-0.802-1.604-0.559-2.989-1.422-4.156-2.589-1.143-1.191-2.041-2.71-2.697-4.557-0.632-1.871-0.948-4.12-0.948-6.745v-25.484h10.5v25.557c0 1.167 0.133 2.151 0.401 2.953 0.291 0.802 0.692 1.458 1.203 1.969s1.105 0.875 1.787 1.094c0.704 0.219 1.483 0.328 2.333 0.328 2.163 0 3.864-0.437 5.104-1.312 1.264-0.875 2.151-2.066 2.661-3.573 0.535-1.531 0.803-3.233 0.803-5.104zM329.131 25.099c0-0.753-0.219-1.434-0.656-2.042s-1.252-1.167-2.443-1.677c-1.167-0.535-2.856-1.021-5.068-1.458-1.993-0.437-3.852-0.984-5.577-1.641-1.701-0.681-3.184-1.495-4.448-2.443-1.24-0.948-2.212-2.066-2.917-3.354-0.704-1.313-1.057-2.807-1.057-4.484 0-1.653 0.353-3.208 1.057-4.667 0.729-1.458 1.763-2.747 3.099-3.865 1.361-1.142 3.015-2.030 4.959-2.661 1.969-0.656 4.181-0.984 6.636-0.984 3.427 0 6.368 0.547 8.823 1.641 2.479 1.094 4.375 2.601 5.688 4.521 1.336 1.896 2.004 4.059 2.004 6.49h-10.5c0-1.021-0.219-1.932-0.656-2.734-0.413-0.826-1.069-1.47-1.968-1.932-0.876-0.486-2.017-0.729-3.428-0.729-1.167 0-2.175 0.207-3.025 0.62-0.851 0.389-1.507 0.924-1.969 1.604-0.437 0.656-0.656 1.385-0.656 2.188 0 0.608 0.121 1.155 0.365 1.641 0.267 0.462 0.692 0.887 1.276 1.276 0.583 0.389 1.336 0.753 2.26 1.094 0.948 0.316 2.115 0.608 3.5 0.875 2.844 0.583 5.384 1.349 7.62 2.297 2.236 0.924 4.011 2.187 5.323 3.792 1.312 1.58 1.969 3.658 1.969 6.234 0 1.75-0.389 3.354-1.167 4.813-0.779 1.458-1.896 2.734-3.355 3.828-1.459 1.069-3.208 1.908-5.251 2.516-2.017 0.583-4.289 0.875-6.817 0.875-3.669 0-6.781-0.656-9.333-1.969-2.528-1.313-4.448-2.977-5.76-4.995-1.288-2.042-1.932-4.132-1.932-6.271h9.952c0.049 1.434 0.413 2.589 1.095 3.464 0.704 0.875 1.592 1.507 2.661 1.896 1.093 0.389 2.272 0.583 3.536 0.583 1.361 0 2.492-0.182 3.391-0.547 0.9-0.389 1.58-0.899 2.041-1.531 0.487-0.656 0.729-1.41 0.729-2.26zM358.733-3.448v39.448h-10.536v-39.448h10.536zM347.541-13.729c0-1.531 0.535-2.795 1.604-3.792s2.503-1.495 4.301-1.495c1.775 0 3.197 0.498 4.267 1.495 1.093 0.997 1.64 2.26 1.64 3.792s-0.547 2.795-1.64 3.792c-1.069 0.997-2.492 1.495-4.267 1.495-1.799 0-3.232-0.498-4.301-1.495s-1.604-2.26-1.604-3.792zM379.185 4.974v31.026h-10.5v-39.448h9.844l0.656 8.422zM377.655 14.891h-2.844c0-2.917 0.376-5.542 1.129-7.875 0.755-2.358 1.812-4.363 3.172-6.016 1.361-1.677 2.977-2.953 4.849-3.828 1.896-0.899 4.011-1.349 6.344-1.349 1.847 0 3.536 0.267 5.068 0.802 1.531 0.535 2.843 1.385 3.937 2.552 1.117 1.167 1.968 2.71 2.552 4.63 0.608 1.92 0.911 4.266 0.911 7.036v25.156h-10.572v-25.193c0-1.75-0.244-3.111-0.729-4.083-0.487-0.972-1.203-1.653-2.151-2.042-0.924-0.413-2.067-0.62-3.428-0.62-1.409 0-2.637 0.279-3.681 0.839-1.021 0.559-1.872 1.337-2.552 2.333-0.657 0.972-1.155 2.115-1.496 3.427-0.34 1.313-0.509 2.722-0.509 4.229zM430.408 36.729c-3.063 0-5.809-0.486-8.24-1.458-2.431-0.997-4.496-2.37-6.197-4.12-1.677-1.75-2.965-3.78-3.865-6.089-0.899-2.333-1.348-4.813-1.348-7.437v-1.458c0-2.99 0.425-5.724 1.276-8.203s2.065-4.63 3.645-6.453c1.604-1.823 3.548-3.22 5.833-4.193 2.285-0.997 4.861-1.495 7.729-1.495 2.795 0 5.275 0.462 7.437 1.385s3.975 2.236 5.432 3.938c1.483 1.701 2.601 3.743 3.355 6.125 0.753 2.358 1.131 4.983 1.131 7.875v4.375h-31.355v-7h21.036v-0.802c0-1.458-0.267-2.759-0.801-3.901-0.511-1.167-1.288-2.090-2.333-2.771s-2.383-1.021-4.011-1.021c-1.385 0-2.576 0.304-3.573 0.911-0.996 0.608-1.811 1.458-2.443 2.552-0.608 1.094-1.069 2.382-1.385 3.865-0.292 1.458-0.437 3.063-0.437 4.812v1.458c0 1.58 0.219 3.038 0.656 4.375 0.463 1.337 1.107 2.491 1.932 3.464 0.851 0.972 1.872 1.726 3.063 2.26 1.216 0.535 2.589 0.802 4.12 0.802 1.896 0 3.659-0.365 5.287-1.094 1.653-0.753 3.075-1.884 4.265-3.391l5.104 5.542c-0.827 1.191-1.956 2.333-3.391 3.427-1.409 1.094-3.111 1.993-5.104 2.698-1.993 0.681-4.265 1.021-6.817 1.021zM475.396 25.099c0-0.753-0.219-1.434-0.656-2.042s-1.252-1.167-2.443-1.677c-1.167-0.535-2.856-1.021-5.068-1.458-1.993-0.437-3.852-0.984-5.579-1.641-1.701-0.681-3.184-1.495-4.448-2.443-1.239-0.948-2.211-2.066-2.916-3.354-0.705-1.313-1.057-2.807-1.057-4.484 0-1.653 0.352-3.208 1.057-4.667 0.729-1.458 1.763-2.747 3.099-3.865 1.361-1.142 3.015-2.030 4.959-2.661 1.968-0.656 4.18-0.984 6.635-0.984 3.428 0 6.369 0.547 8.824 1.641 2.479 1.094 4.375 2.601 5.687 4.521 1.337 1.896 2.005 4.059 2.005 6.49h-10.5c0-1.021-0.219-1.932-0.656-2.734-0.413-0.826-1.069-1.47-1.969-1.932-0.875-0.486-2.017-0.729-3.427-0.729-1.167 0-2.175 0.207-3.025 0.62-0.851 0.389-1.508 0.924-1.969 1.604-0.437 0.656-0.656 1.385-0.656 2.188 0 0.608 0.121 1.155 0.364 1.641 0.268 0.462 0.693 0.887 1.276 1.276 0.584 0.389 1.337 0.753 2.261 1.094 0.948 0.316 2.115 0.608 3.5 0.875 2.843 0.583 5.383 1.349 7.619 2.297 2.237 0.924 4.011 2.187 5.324 3.792 1.312 1.58 1.968 3.658 1.968 6.234 0 1.75-0.388 3.354-1.167 4.813-0.777 1.458-1.896 2.734-3.353 3.828-1.459 1.069-3.209 1.908-5.251 2.516-2.017 0.583-4.289 0.875-6.817 0.875-3.671 0-6.781-0.656-9.333-1.969-2.528-1.313-4.448-2.977-5.76-4.995-1.289-2.042-1.933-4.132-1.933-6.271h9.953c0.049 1.434 0.413 2.589 1.093 3.464 0.705 0.875 1.592 1.507 2.663 1.896 1.093 0.389 2.272 0.583 3.536 0.583 1.361 0 2.491-0.182 3.391-0.547 0.899-0.389 1.58-0.899 2.041-1.531 0.487-0.656 0.729-1.41 0.729-2.26zM515.244 25.099c0-0.753-0.219-1.434-0.657-2.042-0.437-0.608-1.251-1.167-2.443-1.677-1.167-0.535-2.855-1.021-5.067-1.458-1.993-0.437-3.853-0.984-5.579-1.641-1.701-0.681-3.184-1.495-4.448-2.443-1.24-0.948-2.212-2.066-2.916-3.354-0.705-1.313-1.057-2.807-1.057-4.484 0-1.653 0.352-3.208 1.057-4.667 0.729-1.458 1.761-2.747 3.099-3.865 1.361-1.142 3.013-2.030 4.959-2.661 1.968-0.656 4.18-0.984 6.635-0.984 3.427 0 6.368 0.547 8.823 1.641 2.48 1.094 4.376 2.601 5.688 4.521 1.337 1.896 2.005 4.059 2.005 6.49h-10.5c0-1.021-0.219-1.932-0.656-2.734-0.413-0.826-1.069-1.47-1.969-1.932-0.875-0.486-2.017-0.729-3.427-0.729-1.167 0-2.176 0.207-3.027 0.62-0.851 0.389-1.507 0.924-1.968 1.604-0.437 0.656-0.656 1.385-0.656 2.188 0 0.608 0.121 1.155 0.364 1.641 0.268 0.462 0.693 0.887 1.276 1.276 0.584 0.389 1.337 0.753 2.26 1.094 0.948 0.316 2.115 0.608 3.5 0.875 2.844 0.583 5.384 1.349 7.62 2.297 2.236 0.924 4.011 2.187 5.323 3.792 1.313 1.58 1.969 3.658 1.969 6.234 0 1.75-0.389 3.354-1.167 4.813s-1.896 2.734-3.355 3.828c-1.457 1.069-3.208 1.908-5.249 2.516-2.017 0.583-4.291 0.875-6.817 0.875-3.671 0-6.781-0.656-9.333-1.969-2.528-1.313-4.448-2.977-5.761-4.995-1.288-2.042-1.932-4.132-1.932-6.271h9.953c0.048 1.434 0.413 2.589 1.093 3.464 0.705 0.875 1.592 1.507 2.661 1.896 1.095 0.389 2.273 0.583 3.537 0.583 1.36 0 2.491-0.182 3.391-0.547 0.899-0.389 1.579-0.899 2.041-1.531 0.485-0.656 0.729-1.41 0.729-2.26z"></path>
<path fill="#2e2f42" style="fill: var(--color4, #2e2f42)" opacity="0.4" d="M-741.333-466.667h1920v901.333h-1920v-901.333z"></path>
<path fill="#fcfcfc" style="fill: var(--color5, #fcfcfc)" d="M-48-360h533.333c2.946 0 5.333 2.388 5.333 5.333v768c0 2.946-2.388 5.333-5.333 5.333h-533.333c-2.946 0-5.333-2.388-5.333-5.333v-768c0-2.946 2.388-5.333 5.333-5.333z"></path>
<path fill="none" stroke="#2e2f42" style="stroke: var(--color4, #2e2f42)" stroke-linejoin="miter" stroke-linecap="butt" stroke-miterlimit="4" stroke-width="1.3333" d="M-16-10h469.333c2.577 0 4.667 2.089 4.667 4.667v42.667c0 2.577-2.089 4.667-4.667 4.667h-469.333c-2.577 0-4.667-2.089-4.667-4.667v-42.667c0-2.577 2.089-4.667 4.667-4.667z"></path>
<path fill="#2e2f42" style="fill: var(--color4, #2e2f42)" d="M20 8h-16c-1.1 0-1.99 0.9-1.99 2l-0.010 12c0 1.1 0.9 2 2 2h16c1.1 0 2-0.9 2-2v-12c0-1.1-0.9-2-2-2zM19.6 12.25l-7.070 4.42c-0.32 0.2-0.74 0.2-1.060 0l-7.070-4.42c-0.25-0.16-0.4-0.43-0.4-0.72 0-0.67 0.73-1.070 1.3-0.72l6.7 4.19 6.7-4.19c0.57-0.35 1.3 0.050 1.3 0.72 0 0.29-0.15 0.56-0.4 0.72z"></path>
</symbol>
<symbol id="icon-person-black-18dp-1" viewBox="0 0 32 32">
<path  d="M0 0h32v32h-32v-32z"></path>
<path  d="M-234.667-3432.889h2113.778c23.564 0 42.667 19.103 42.667 42.667v3658.667c0 23.564-19.103 42.667-42.667 42.667h-2113.778c-23.564 0-42.667-19.103-42.667-42.667v-3658.667c0-23.564 19.103-42.667 42.667-42.667z"></path>
<path  stroke-linejoin="miter" stroke-linecap="butt" stroke-miterlimit="4" stroke-width="1.7778" d="M-55.111-86.222h693.333c4.418 0 8 3.582 8 8v295.111c0 4.418-3.582 8-8 8h-693.333c-4.418 0-8-3.582-8-8v-295.111c0-4.418 3.582-8 8-8z"></path>
<path  stroke-linejoin="miter" stroke-linecap="butt" stroke-miterlimit="4" stroke-width="1.7778" d="M-21.333-18.667h625.778c3.436 0 6.222 2.786 6.222 6.222v56.889c0 3.436-2.786 6.222-6.222 6.222h-625.778c-3.436 0-6.222-2.786-6.222-6.222v-56.889c0-3.436 2.786-6.222 6.222-6.222z"></path>
<path  d="M16 16c2.947 0 5.333-2.387 5.333-5.333s-2.387-5.333-5.333-5.333c-2.947 0-5.333 2.387-5.333 5.333s2.387 5.333 5.333 5.333zM16 18.667c-3.56 0-10.667 1.787-10.667 5.333v1.333c0 0.733 0.6 1.333 1.333 1.333h18.667c0.733 0 1.333-0.6 1.333-1.333v-1.333c0-3.547-7.107-5.333-10.667-5.333z"></path>
</symbol>
<symbol id="icon-Property-1click" viewBox="0 0 32 32">
<path fill="#404bbf" style="fill: var(--color1, #404bbf)" d="M4 1h24c1.657 0 3 1.343 3 3v24c0 1.657-1.343 3-3 3h-24c-1.657 0-3-1.343-3-3v-24c0-1.657 1.343-3 3-3z"></path>
<path fill="none" stroke="#404bbf" style="stroke: var(--color1, #404bbf)" stroke-linejoin="miter" stroke-linecap="butt" stroke-miterlimit="4" stroke-width="2" d="M4 1h24c1.657 0 3 1.343 3 3v24c0 1.657-1.343 3-3 3h-24c-1.657 0-3-1.343-3-3v-24c0-1.657 1.343-3 3-3z"></path>
<path fill="#f4f4fd" style="fill: var(--color2, #f4f4fd)" d="M22.891 8.51c0.346-0.331 0.805-0.514 1.283-0.51s0.934 0.193 1.275 0.53c0.341 0.336 0.538 0.792 0.551 1.272s-0.161 0.945-0.483 1.299l-9.789 12.309c-0.168 0.182-0.371 0.328-0.597 0.43s-0.47 0.156-0.717 0.161c-0.247 0.005-0.493-0.041-0.723-0.134s-0.438-0.232-0.613-0.408l-6.492-6.527c-0.181-0.169-0.326-0.374-0.426-0.601s-0.155-0.472-0.159-0.72c-0.004-0.248 0.041-0.495 0.134-0.725s0.23-0.44 0.405-0.615c0.175-0.176 0.383-0.314 0.612-0.407s0.475-0.139 0.722-0.134c0.247 0.004 0.491 0.059 0.716 0.16s0.429 0.247 0.597 0.429l5.137 5.163 8.521-10.915c0.015-0.019 0.032-0.037 0.049-0.054h-0.002z"></path>
</symbol>








</defs>
</svg>
